<svg width="71" height="71" viewBox="0 0 71 71" fill="none" xmlns="http://www.w3.org/2000/svg">
<g opacity="0.1">
<circle cx="3.32625" cy="35.2577" r="3.32625" transform="rotate(-90 3.32625 35.2577)" fill="#FAFBFF"/>
<circle cx="3.32625" cy="51.4667" r="3.32625" transform="rotate(-90 3.32625 51.4667)" fill="#FAFBFF"/>
<circle cx="3.32625" cy="67.6737" r="3.32625" transform="rotate(-90 3.32625 67.6737)" fill="#FAFBFF"/>
<circle cx="3.32625" cy="19.2919" r="3.32625" transform="rotate(-90 3.32625 19.2919)" fill="#FAFBFF"/>
<circle cx="3.32625" cy="3.32609" r="3.32625" transform="rotate(-90 3.32625 3.32609)" fill="#FAFBFF"/>
<circle cx="19.2921" cy="35.2577" r="3.32625" transform="rotate(-90 19.2921 35.2577)" fill="#FAFBFF"/>
<circle cx="19.2921" cy="51.4667" r="3.32625" transform="rotate(-90 19.2921 51.4667)" fill="#FAFBFF"/>
<circle cx="19.2921" cy="67.6737" r="3.32625" transform="rotate(-90 19.2921 67.6737)" fill="#FAFBFF"/>
<circle cx="19.2921" cy="19.2919" r="3.32625" transform="rotate(-90 19.2921 19.2919)" fill="#FAFBFF"/>
<circle cx="19.2921" cy="3.32609" r="3.32625" transform="rotate(-90 19.2921 3.32609)" fill="#FAFBFF"/>
<circle cx="35.2579" cy="35.2577" r="3.32625" transform="rotate(-90 35.2579 35.2577)" fill="#FAFBFF"/>
<circle cx="35.2579" cy="51.4667" r="3.32625" transform="rotate(-90 35.2579 51.4667)" fill="#FAFBFF"/>
<circle cx="35.2579" cy="67.6737" r="3.32625" transform="rotate(-90 35.2579 67.6737)" fill="#FAFBFF"/>
<circle cx="35.2579" cy="19.2919" r="3.32625" transform="rotate(-90 35.2579 19.2919)" fill="#FAFBFF"/>
<circle cx="35.2579" cy="3.32609" r="3.32625" transform="rotate(-90 35.2579 3.32609)" fill="#FAFBFF"/>
<circle cx="51.2247" cy="35.2577" r="3.32625" transform="rotate(-90 51.2247 35.2577)" fill="#FAFBFF"/>
<circle cx="51.2247" cy="51.4667" r="3.32625" transform="rotate(-90 51.2247 51.4667)" fill="#FAFBFF"/>
<circle cx="51.2247" cy="67.6737" r="3.32625" transform="rotate(-90 51.2247 67.6737)" fill="#FAFBFF"/>
<circle cx="51.2247" cy="19.2919" r="3.32625" transform="rotate(-90 51.2247 19.2919)" fill="#FAFBFF"/>
<circle cx="51.2247" cy="3.32609" r="3.32625" transform="rotate(-90 51.2247 3.32609)" fill="#FAFBFF"/>
<circle cx="67.1905" cy="35.2577" r="3.32625" transform="rotate(-90 67.1905 35.2577)" fill="#FAFBFF"/>
<circle cx="67.1905" cy="51.4667" r="3.32625" transform="rotate(-90 67.1905 51.4667)" fill="#FAFBFF"/>
<circle cx="67.1905" cy="67.6737" r="3.32625" transform="rotate(-90 67.1905 67.6737)" fill="#FAFBFF"/>
<circle cx="67.1905" cy="19.2919" r="3.32625" transform="rotate(-90 67.1905 19.2919)" fill="#FAFBFF"/>
<circle cx="67.1905" cy="3.32609" r="3.32625" transform="rotate(-90 67.1905 3.32609)" fill="#FAFBFF"/>
</g>
</svg>
