<svg width="115" height="96" viewBox="0 0 115 96" fill="none" xmlns="http://www.w3.org/2000/svg">
<path d="M92.4795 0.00140106C92.2973 -0.00125174 92.1143 0.000516872 91.9322 0.00140106C88.4207 0.0456129 84.79 0.912168 81.2168 2.6284C75.6416 5.30677 69.7226 10.4919 66.0642 15.9044C64.5893 18.0867 63.7768 19.6766 62.9243 22.0498C61.5626 25.8424 61.399 27.2651 61.3583 35.6459C61.3229 42.8632 61.2805 43.5572 60.7499 45.4186C59.4315 50.0467 57.8425 52.2927 50.9939 59.2173L45.4418 64.8305L49.375 68.7637L54.8519 63.2734C57.8646 60.2536 61.0743 57.2631 61.9852 56.6274C64.2799 55.0261 65.6795 54.3488 68.2051 53.6165C71.2239 52.742 74.6398 52.4537 79.0486 52.7022C89.5728 53.2955 96.0137 50.9399 103.342 43.8173C108.688 38.6215 111.933 33.4564 113.508 27.6381C114.247 24.9102 114.293 19.3146 113.598 16.7956C112.478 12.7404 110.567 9.428 107.665 6.51623C103.44 2.27637 98.1278 0.0674785 92.4793 0.000247396L92.4795 0.00140106ZM92.4247 2.66642C95.6681 2.66731 96.1756 2.73274 98.0291 3.37912C99.1503 3.76997 100.869 4.56049 101.85 5.13612C103.912 6.34578 107.287 9.62023 108.7 11.7829C114.318 20.3779 111.822 31.5865 102.105 41.3963C97.7029 45.8397 93.6052 48.2378 88.6783 49.2529C85.8594 49.8338 80.3009 49.771 77.6888 49.1299C70.3258 47.3208 65.4093 41.4645 64.5145 33.4391C63.8186 27.1963 65.5942 20.6998 69.3461 15.7611C72.4446 11.6829 78.3132 6.87349 82.6981 4.81853C86.3544 3.10486 88.3458 2.66451 92.4249 2.66716L92.4247 2.66642ZM93.4831 4.95228L93.3363 6.60759L93.1887 8.26291L90.7729 8.33718C88.0069 8.42207 87.7416 8.26379 87.6701 6.49442C87.6329 5.57656 87.6117 5.61813 87.4791 6.86138L87.3296 8.26203L84.9138 8.3363C82.8341 8.39997 82.4512 8.34603 82.1612 7.95431C81.8411 7.52102 81.811 7.52102 81.5705 7.94458C81.4317 8.18951 81.0656 8.40173 80.757 8.41588C80.2397 8.43975 80.2459 8.45479 80.8331 8.61837C81.4626 8.79345 81.4697 8.82705 81.4697 11.5867V14.3774H76.3746L76.227 12.8494C76.0979 11.516 76.0731 11.4611 76.036 12.4206C75.9679 14.1714 75.6743 14.4994 74.1375 14.541L72.8094 14.5764L74.1313 14.7373C74.8581 14.8257 75.5266 14.9716 75.6159 15.0609C75.9299 15.3748 76.0342 19.5573 75.7415 20.1037C75.478 20.5962 75.2702 20.6307 72.9871 20.5635L70.5174 20.491L70.3644 19.345C70.2654 18.6031 70.1982 18.4519 70.1734 18.9162C70.1213 19.8888 69.6995 20.6148 69.1716 20.6387C68.8223 20.6546 68.8108 20.6864 69.1168 20.7952C69.894 21.0729 70.1354 21.7413 70.1354 23.6132C70.1354 26.1961 69.9515 26.4659 68.1529 26.5241L66.6966 26.5718L68.0972 26.662C69.9046 26.7788 70.1354 27.0971 70.1354 29.4722C70.1354 32.1275 69.9833 32.3255 67.8974 32.3848L66.1864 32.4335L67.8417 32.521C69.008 32.5829 69.5916 32.7332 69.8162 33.0303C70.1823 33.5158 70.2495 37.1095 69.9029 37.6575C69.7791 37.8521 69.237 38.097 68.6968 38.2013L67.7152 38.3914L68.6614 38.4206C69.8366 38.4569 70.1186 38.9211 70.1805 40.9168C70.2256 42.3767 70.2283 42.3705 70.3715 40.4879L70.5165 38.5771L72.9862 38.5045C75.2931 38.4365 75.4753 38.4683 75.7504 38.9812C76.0767 39.5904 75.9989 43.3688 75.6531 43.7154C75.5373 43.8312 74.6778 43.9948 73.7431 44.078L72.0445 44.2292L73.7555 44.269C75.5841 44.3114 75.9493 44.5714 76.0298 45.8845C76.0502 46.209 76.1359 46.0162 76.2208 45.4556L76.3756 44.437H81.4706L81.5821 46.0923C81.6537 47.156 81.7227 47.4292 81.7757 46.8563C81.8208 46.3655 81.9207 45.5882 81.9959 45.1284L82.1338 44.292L87.3297 44.437L87.4773 45.9649C87.6197 47.4337 87.6276 47.4461 87.6683 46.3036C87.7408 44.2849 87.7063 44.3088 90.5493 44.3088C92.9332 44.3088 93.0898 44.3415 93.2879 44.8773L93.4983 45.4468L93.6787 44.8773C93.7778 44.5643 94.0528 44.3026 94.288 44.2946C94.6328 44.2849 94.6045 44.2026 94.1438 43.8817C93.6239 43.5191 93.5709 43.2777 93.5744 41.2846C93.5762 40.0758 93.6717 38.9387 93.7866 38.7583C93.9387 38.5178 94.6717 38.4497 96.5207 38.5036L99.0469 38.577L99.1946 40.105C99.337 41.5737 99.3449 41.587 99.3856 40.4437C99.4528 38.5691 99.5536 38.4541 101.175 38.4028L102.613 38.3569L101.346 38.2587C100.649 38.2048 99.9329 38.0394 99.7543 37.8917C99.4157 37.6105 99.2821 33.7791 99.5837 32.9929C99.7101 32.664 100.193 32.5897 102.228 32.5897C104.867 32.5897 105.143 32.702 105.356 33.863C105.454 34.3962 105.479 34.3635 105.508 33.6641C105.529 33.1477 105.703 32.7666 105.961 32.6675C106.346 32.5199 106.346 32.4827 105.951 32.1945C105.591 31.9318 105.536 31.4827 105.597 29.3701L105.67 26.8579L108.726 26.5767L105.67 26.3485V20.9988L109.237 20.7689L105.67 20.4895L105.597 17.8358C105.518 14.9487 105.583 14.7975 106.944 14.7259C107.597 14.6914 107.56 14.6631 106.689 14.5305L105.671 14.3758L105.379 10.8087L105.334 12.3499C105.309 13.1979 105.152 14.0282 104.983 14.1971C104.787 14.3925 103.789 14.5031 102.208 14.5031C100.192 14.5031 99.711 14.4288 99.5845 14.0999C99.2962 13.3491 99.4156 9.26919 99.7357 8.95001C99.9037 8.78201 100.735 8.62285 101.583 8.59632L103.124 8.54857L101.604 8.45484C99.871 8.34784 99.4439 8.09496 99.397 7.14881C99.3696 6.60322 99.3342 6.64478 99.206 7.37164L99.0486 8.26296L96.6666 8.33636C95.1288 8.38411 94.158 8.30452 93.928 8.11353C93.7113 7.93402 93.5539 7.25403 93.5274 6.38394L93.4832 4.95059L93.4831 4.95228ZM83.6592 8.67761C83.9908 8.67496 84.4011 8.6838 84.914 8.69972L87.3298 8.77399V14.3784L84.8601 14.4509C82.6221 14.5172 82.3649 14.4765 82.1215 14.0221C81.7395 13.3076 81.7793 9.60879 82.1755 9.06664C82.3806 8.78545 82.6645 8.6847 83.6592 8.67761ZM89.5183 8.67761C89.8499 8.67496 90.2602 8.6838 90.7731 8.69972L93.1889 8.77399V14.3784L90.7642 14.45C89.0965 14.4995 88.2423 14.4244 88.0257 14.2077C87.5959 13.778 87.6021 9.6573 88.0336 9.06671C88.2388 8.78552 88.5226 8.68472 89.5174 8.67763L89.5183 8.67761ZM95.6223 8.68734C95.9327 8.6838 96.282 8.68734 96.6666 8.69972L99.0487 8.77311V14.3775L96.4685 14.4491C94.2845 14.5102 93.8635 14.458 93.7299 14.1096C93.6433 13.8832 93.5717 12.6895 93.5717 11.4577C93.5717 9.84836 93.6716 9.13381 93.928 8.92079C94.1004 8.77755 94.6902 8.69708 95.6222 8.68646L95.6223 8.68734ZM96.4146 14.7472C97.5659 14.7587 98.7075 14.8843 98.8994 15.115C99.0913 15.3467 99.1691 16.3494 99.1223 17.9809L99.0489 20.4904L96.6243 20.562C94.9566 20.6115 94.1023 20.5363 93.8857 20.3197C93.463 19.897 93.4559 15.4856 93.8777 15.0637C94.1041 14.8373 95.2642 14.7339 96.4155 14.7454L96.4146 14.7472ZM90.4919 14.7596C92.1101 14.7596 92.8271 14.8595 93.0395 15.115C93.2313 15.3467 93.3092 16.3494 93.2623 17.9809L93.1889 20.4904L90.7192 20.5629C88.4812 20.6292 88.224 20.5885 87.9806 20.134C87.6349 19.4876 87.6313 15.8948 87.9753 15.2513C88.2052 14.8215 88.5253 14.7587 90.4919 14.7587L90.4919 14.7596ZM102.401 14.7596C105.231 14.7596 105.289 14.817 105.289 17.689C105.289 20.5609 105.231 20.6184 102.401 20.6184C100.905 20.6184 99.9294 20.5061 99.7359 20.3125C99.5431 20.1197 99.4299 19.1523 99.4299 17.6889C99.4299 16.2254 99.5422 15.2581 99.7359 15.0653C99.9295 14.8716 100.906 14.7593 102.401 14.7593V14.7596ZM84.6 14.7631C85.8212 14.7658 86.9671 14.8604 87.1476 14.9744C87.389 15.1274 87.4562 15.8843 87.4022 17.836L87.3297 20.4897L84.8601 20.5622C82.622 20.6285 82.3648 20.5878 82.1215 20.1333C81.7757 19.4869 81.7722 15.8941 82.1161 15.2506C82.346 14.8208 82.6635 14.758 84.6001 14.7616L84.6 14.7631ZM79.0513 14.7684C80.0885 14.7817 81.0992 14.8542 81.2893 14.9753C81.5307 15.1283 81.5979 15.8852 81.544 17.8368L81.4715 20.4905L79.0389 20.5622C77.7011 20.602 76.5258 20.5542 76.4278 20.4561C76.3297 20.3579 76.2492 19.1058 76.2492 17.6724C76.2492 15.5317 76.3208 15.04 76.6524 14.9128C76.9504 14.7987 78.0141 14.7536 79.0514 14.7669L79.0513 14.7684ZM102.401 20.8733C105.216 20.8733 105.289 20.9441 105.289 23.6755C105.289 26.407 105.217 26.4777 102.401 26.4777C100.905 26.4777 99.9296 26.3654 99.7361 26.1718C99.546 25.9817 99.4301 25.0399 99.4301 23.6756C99.4301 22.3113 99.5451 21.3694 99.7361 21.1795C99.9297 20.9858 100.906 20.8733 102.401 20.8733ZM83.6595 20.9051C83.9911 20.9025 84.4014 20.9113 84.9142 20.9273L87.33 21.0015V26.3513L84.8603 26.4238C82.6223 26.4901 82.3651 26.4494 82.1218 25.9949C81.7415 25.284 81.7804 21.8345 82.1757 21.2951C82.3808 21.0139 82.6647 20.9131 83.6595 20.906V20.9051ZM89.5185 20.9051C89.8501 20.9025 90.2604 20.9113 90.7733 20.9273L93.1891 21.0015V26.3513L90.7194 26.4238C88.4814 26.4901 88.2242 26.4494 87.9808 25.9949C87.6006 25.284 87.6395 21.8345 88.0348 21.2951C88.2399 21.0139 88.5238 20.9131 89.5185 20.906V20.9051ZM73.9691 20.906C75.9233 20.8901 75.9348 21.2093 75.9348 23.6754C75.9348 26.4563 75.9127 26.4776 73.0663 26.4776C71.2792 26.4776 70.5957 26.3874 70.5011 26.1398C70.4295 25.9541 70.4047 24.7215 70.4454 23.4012L70.5197 21.0006L73.0079 20.9272C73.3722 20.9175 73.6905 20.9078 73.97 20.9051L73.9691 20.906ZM95.6225 20.9149C95.9329 20.9113 96.2822 20.9149 96.6668 20.9273L99.0489 21.0006L99.1223 23.5269C99.1762 25.3768 99.1081 26.1089 98.8676 26.261C98.3424 26.5943 94.2271 26.5201 93.8778 26.1717C93.4242 25.7181 93.4666 21.5329 93.9282 21.149C94.1007 21.0058 94.6905 20.9255 95.6225 20.9149ZM76.3777 21.0006H81.4728V26.3504L78.9845 26.4229C77.0693 26.4795 76.4653 26.4167 76.3637 26.1488C76.2903 25.9578 76.2637 24.7216 76.3044 23.4014L76.3787 21.0007L76.3777 21.0006ZM75.4917 26.7137L75.7649 27.4238C76.1593 28.4468 75.955 31.7902 75.4802 32.0908C75.0168 32.3835 71.1518 32.4073 70.7 32.1208C70.4594 31.9687 70.3913 31.2357 70.4453 29.3868L70.5187 26.8605L73.0051 26.788L75.4915 26.7146L75.4917 26.7137ZM102.402 26.7323C105.217 26.7323 105.29 26.803 105.29 29.5345C105.29 32.2658 105.218 32.3367 102.402 32.3367C100.906 32.3367 99.9307 32.2244 99.7372 32.0307C99.5471 31.8406 99.4312 30.8989 99.4312 29.5346C99.4312 28.1702 99.5462 27.2283 99.7372 27.0384C99.9308 26.8448 100.907 26.7323 102.402 26.7323ZM83.6606 26.7641C83.9922 26.7615 84.4025 26.7703 84.9153 26.7862L87.3311 26.8605L87.4045 29.3868C87.4585 31.2366 87.3904 31.9687 87.1499 32.1208C86.9695 32.2349 85.8164 32.3304 84.5865 32.333C82.4201 32.3366 82.344 32.3171 82.1025 31.6831C81.7435 30.7387 81.7939 27.6766 82.1768 27.153C82.382 26.8719 82.6658 26.7712 83.6606 26.7641ZM89.5196 26.7641C89.8512 26.7615 90.2615 26.7703 90.7744 26.7862L93.1902 26.8605L93.2636 29.3868C93.3175 31.2366 93.2494 31.9687 93.0089 32.1208C92.8285 32.2349 91.6817 32.3304 90.4605 32.333C88.524 32.3366 88.2065 32.2738 87.9765 31.844C87.5998 31.1402 87.6432 27.6891 88.0358 27.153C88.2409 26.8718 88.5249 26.7712 89.5196 26.7641ZM95.6236 26.7738C95.934 26.7703 96.2833 26.7738 96.668 26.7862L99.05 26.8596L99.1234 29.2417C99.1712 30.7794 99.0916 31.7503 98.9006 31.9803C98.5168 32.4419 94.3316 32.4852 93.8779 32.0316C93.4243 31.5779 93.4668 27.3928 93.9283 27.0089C94.1008 26.8657 94.6906 26.7852 95.6226 26.7746L95.6236 26.7738ZM76.3788 26.8596H81.4739L81.5473 29.3859C81.6012 31.2357 81.5331 31.9678 81.2926 32.1199C81.1122 32.234 80.0476 32.3277 78.9264 32.3277C77.8052 32.3277 76.7405 32.234 76.5602 32.1199C76.3196 31.9678 76.2516 31.2348 76.3055 29.3859L76.3788 26.8596ZM74.3565 32.6195C75.3937 32.6231 75.5476 32.7371 75.7536 33.1227C76.1825 33.9238 75.9756 37.6367 75.4848 37.947C75.0197 38.2415 71.1555 38.2671 70.701 37.9789C70.4605 37.8268 70.3924 37.0937 70.4463 35.2448L70.5197 32.7185L72.9894 32.646C73.5659 32.6292 74.0108 32.6186 74.3565 32.6195ZM83.4961 32.6195C83.8418 32.6186 84.2857 32.6284 84.8632 32.6461L87.3328 32.7186L87.4062 35.2448C87.4602 37.0947 87.3921 37.8268 87.1516 37.9789C86.6971 38.2671 82.8338 38.2415 82.3677 37.9471C81.877 37.6367 81.6701 33.9238 82.0989 33.1227C82.305 32.7381 82.4589 32.624 83.4961 32.6195ZM89.7654 32.6328C90.0757 32.6293 90.425 32.6328 90.8096 32.6452L93.1917 32.7186L93.2651 35.1006C93.3129 36.6383 93.2333 37.6092 93.0423 37.8392C92.601 38.3707 88.6555 38.3362 88.1152 37.7959C87.5749 37.2556 87.5395 33.3093 88.071 32.8679C88.2434 32.7246 88.8332 32.6442 89.7652 32.6335L89.7654 32.6328ZM95.6244 32.6328C95.9348 32.6293 96.2841 32.6328 96.6687 32.6452L99.0508 32.7186L99.1242 35.1006C99.1719 36.6383 99.0923 37.6092 98.9013 37.8392C98.4601 38.3707 94.5146 38.3362 93.9742 37.7959C93.434 37.2556 93.3986 33.3093 93.93 32.8679C94.1024 32.7246 94.6922 32.6442 95.6242 32.6335L95.6244 32.6328ZM76.3796 32.7186H81.4746L81.548 35.2448C81.602 37.0947 81.5339 37.8268 81.2934 37.9789C81.113 38.093 80.0484 38.1867 78.9272 38.1867C77.806 38.1867 76.7413 38.093 76.5609 37.9789C76.3204 37.8268 76.2523 37.0938 76.3063 35.2448L76.3796 32.7186ZM83.954 38.483C84.2352 38.4839 84.5544 38.4919 84.917 38.5033L87.3328 38.5776L87.4062 41.1039C87.4601 42.9537 87.392 43.6858 87.1515 43.838C86.9711 43.952 85.8826 44.0475 84.7321 44.0502C82.9052 44.0537 82.5745 43.983 82.1209 43.4966C81.7124 43.058 81.6019 43.0253 81.6019 43.3419C81.6019 43.5638 81.4206 43.8141 81.1987 43.899C80.6027 44.128 76.9409 44.0793 76.5609 43.8379C76.3204 43.6859 76.2523 42.9528 76.3062 41.1039L76.3796 38.5776H81.4747L81.7629 42.654L81.8098 40.9828C81.8699 38.8341 81.9849 38.4794 83.955 38.484L83.954 38.483ZM89.7654 38.491C90.0757 38.4874 90.425 38.491 90.8096 38.5033L93.1917 38.5767L93.2651 41.103C93.319 42.9529 93.251 43.6849 93.0104 43.8371C92.8301 43.9511 91.7451 44.0466 90.5992 44.0493C89.0411 44.0519 88.4151 43.952 88.1152 43.6531C87.575 43.1129 87.5396 39.1665 88.071 38.7251C88.2435 38.5819 88.8334 38.5016 89.7654 38.491ZM42.9186 66.6465L36.1416 73.0935H45.7826L47.2116 71.3206L42.9186 66.6465ZM32.8319 76.1504L29.3807 79.774L39.1747 79.9721L42.6259 76.3493L32.8319 76.1513V76.1504ZM25.9277 83.0281L22.3889 86.5943H32.8328L36.3716 83.0281H25.9277ZM19.4912 89.6511C19.0765 90.2436 18.2037 90.9174 18.1719 91.6699C18.1719 92.7814 20.9944 95.6331 22.4552 95.9992C22.4994 96.0115 22.7859 95.886 23.0919 95.7233C23.8063 95.3439 29.3797 90.1526 29.3797 89.8669L19.4901 89.6512L19.4912 89.6511Z" fill="#3B4650"/>
<path d="M21.6115 0.00162943C15.963 0.0688334 10.6513 2.27775 6.42637 6.51762C3.52524 9.42938 1.61335 12.7418 0.493959 16.797C-0.201057 19.3162 -0.155083 24.9127 0.584152 27.6395C2.15987 33.4587 5.4051 38.6229 10.7503 43.8187C18.0781 50.9413 24.5189 53.2978 35.0441 52.7045C39.453 52.456 42.8687 52.7434 45.8875 53.6188C46.7939 53.8814 47.5534 54.1388 48.2626 54.4323L54.3595 48.3222C53.9661 47.4229 53.6451 46.4856 53.3418 45.4202C52.8112 43.5588 52.7688 42.8647 52.7334 35.6475C52.6927 27.2667 52.5291 25.8446 51.1674 22.0514C50.3159 19.6781 49.5024 18.0872 48.0275 15.906C44.3685 10.4935 38.4501 5.30834 32.8749 2.62996C29.3026 0.913641 25.671 0.0471078 22.1595 0.00296616C21.9765 0.000313363 21.7943 0.000313363 21.6122 0.00296616L21.6115 0.00162943ZM21.6664 2.66665C25.7455 2.664 27.7366 3.10524 31.3932 4.81803C35.7781 6.87301 41.6469 11.6824 44.7452 15.7606C48.497 20.6982 50.2736 27.1958 49.5768 33.4386C48.6819 41.4649 43.7646 47.3212 36.4015 49.1294C33.7895 49.7714 28.231 49.8333 25.4121 49.2524C20.485 48.2372 16.3866 45.8392 11.9858 41.3958C2.26963 31.586 -0.226525 20.3781 5.39101 11.7824C6.80404 9.61957 10.1782 6.346 12.2413 5.13561C13.222 4.55996 14.9419 3.76944 16.0622 3.37862C17.9156 2.73223 18.4232 2.66769 21.6666 2.66592L21.6664 2.66665ZM20.6079 4.95605L20.5637 6.38588C20.5372 7.25599 20.3798 7.93597 20.1632 8.11546C19.9333 8.30646 18.9623 8.38515 17.4246 8.33829L15.0425 8.2649L14.8851 7.37357C14.7569 6.64761 14.7215 6.60605 14.6941 7.15074C14.6464 8.09777 14.2201 8.35067 12.487 8.45677L10.967 8.5505L12.5083 8.59825C13.3563 8.62478 14.1866 8.78394 14.3555 8.95195C14.6747 9.27117 14.7949 13.3512 14.5067 14.1018C14.3802 14.4307 13.8992 14.505 11.8831 14.505C10.302 14.505 9.30452 14.3954 9.10825 14.1991C8.94025 14.031 8.78197 13.1998 8.75721 12.3519L8.71211 10.8106L8.4203 14.3777L7.40164 14.5324C6.53153 14.6651 6.49441 14.6934 7.14698 14.7279C8.50783 14.7995 8.57328 14.9507 8.49369 17.8377L8.42118 20.4914L4.85408 20.7708L8.42118 21.0007V26.3505L5.36522 26.5786L8.42118 26.8598L8.49457 29.372C8.55647 31.4854 8.49988 31.9336 8.13999 32.1964C7.74561 32.4847 7.74561 32.5218 8.13026 32.6695C8.38846 32.7685 8.56176 33.1496 8.583 33.666C8.61218 34.3654 8.63694 34.3982 8.73509 33.865C8.94819 32.704 9.22497 32.5917 11.8635 32.5917C13.8981 32.5917 14.38 32.665 14.5066 32.9949C14.8081 33.781 14.6746 37.6123 14.3359 37.8937C14.1573 38.0422 13.441 38.2076 12.7443 38.2606L11.4771 38.3588L12.9149 38.4048C14.5366 38.4569 14.6374 38.571 14.7046 40.4456C14.7462 41.5881 14.7533 41.5748 14.8956 40.1061L15.0433 38.5781L17.5695 38.5047C19.4194 38.4507 20.1515 38.5188 20.3036 38.7593C20.4177 38.9397 20.5141 40.0769 20.5158 41.2856C20.5194 43.2787 20.4663 43.5201 19.9464 43.8827C19.4857 44.2046 19.4574 44.285 19.8022 44.2957C20.0384 44.3036 20.3116 44.5653 20.4115 44.8784L20.5919 45.4478L20.8023 44.8784C21.0004 44.3416 21.1569 44.3098 23.5409 44.3098C26.383 44.3098 26.3492 44.2859 26.4219 46.3047C26.4635 47.4471 26.4705 47.4339 26.6129 45.966L26.7606 44.4371L31.9564 44.2921L32.0952 45.1286C32.1713 45.5884 32.2703 46.3666 32.3154 46.8564C32.3684 47.4294 32.4374 47.1562 32.509 46.0924L32.6205 44.4371H37.7155L37.8712 45.4558C37.956 46.0164 38.0418 46.2092 38.0622 45.8846C38.1426 44.5715 38.5078 44.3116 40.3365 44.2691L42.0466 44.2293L40.348 44.0781C39.4133 43.995 38.5538 43.8323 38.438 43.7156C38.0923 43.369 38.0144 39.5905 38.3407 38.9813C38.6157 38.4676 38.7979 38.4366 41.1058 38.5047L43.5755 38.5772L43.7214 40.4881C43.8646 42.3706 43.8673 42.3768 43.9124 40.9169C43.9743 38.9212 44.2563 38.457 45.4315 38.4208L46.3776 38.3916L45.3961 38.2015C44.8559 38.0971 44.3138 37.8522 44.1909 37.6577C43.8443 37.1094 43.9106 33.5158 44.2767 33.0305C44.5013 32.7334 45.0849 32.5831 46.2512 32.5212L47.9065 32.4336L46.1964 32.385C44.1105 32.3249 43.9584 32.1268 43.9584 29.4723C43.9584 27.0973 44.1892 26.779 45.9966 26.6622L47.3972 26.572L45.9417 26.5243C44.1423 26.4659 43.9584 26.1962 43.9584 23.6134C43.9584 21.7415 44.1998 21.0729 44.977 20.7954C45.283 20.6857 45.2724 20.6548 44.9222 20.6388C44.3943 20.6141 43.9716 19.889 43.9195 18.9163C43.8947 18.4521 43.8275 18.6033 43.7285 19.3452L43.5755 20.4912L41.1058 20.5637C38.8227 20.6309 38.6149 20.5964 38.3514 20.1039C38.0587 19.5574 38.1622 15.3748 38.4761 15.0611C38.5654 14.9718 39.2339 14.8259 39.9607 14.7375L41.2818 14.5765L39.9536 14.5403C38.4168 14.4987 38.1232 14.1707 38.0552 12.4198C38.018 11.4613 37.9933 11.5161 37.8642 12.8487L37.7156 14.3767H32.6205V11.586C32.6205 8.82636 32.6276 8.79354 33.2572 8.61765C33.8452 8.45407 33.8514 8.43904 33.3332 8.41516C33.0246 8.40101 32.6594 8.18879 32.5206 7.94386C32.281 7.52031 32.2509 7.52119 31.9299 7.95359C31.6399 8.3462 31.2561 8.39926 29.1764 8.33559L26.7606 8.26131L26.6112 6.86066C26.4785 5.61652 26.4573 5.57496 26.4202 6.4937C26.3494 8.26308 26.0833 8.42047 23.3174 8.33646L20.9016 8.26219L20.7539 6.60688L20.6079 4.95605ZM24.573 8.67776C25.5677 8.68394 25.8507 8.78563 26.0567 9.06683C26.4882 9.65752 26.4953 13.778 26.0647 14.2079C25.8489 14.4236 24.9939 14.4997 23.3261 14.4501L20.9015 14.3785V8.77412L23.3182 8.69984C23.831 8.68393 24.2414 8.67599 24.573 8.67776ZM30.432 8.67776C31.4268 8.68394 31.7098 8.78563 31.9158 9.06683C32.312 9.60799 32.3518 13.3076 31.9689 14.0222C31.7257 14.4767 31.4684 14.5174 29.2303 14.4511L26.7606 14.3786V8.77419L29.1773 8.69991C29.6902 8.68399 30.1004 8.67599 30.432 8.67776ZM18.469 8.68748C19.401 8.69898 19.9908 8.77856 20.1641 8.92182C20.4205 9.13404 20.5196 9.8494 20.5196 11.4587C20.5196 12.6914 20.4488 13.8842 20.3613 14.1106C20.2278 14.459 19.8069 14.5112 17.6227 14.4502L15.0425 14.3785V8.77413L17.4246 8.70074C17.8092 8.68925 18.1577 8.68482 18.468 8.68836L18.469 8.68748ZM17.6767 14.7473C18.828 14.7358 19.9872 14.8384 20.2136 15.0657C20.6345 15.4866 20.6283 19.899 20.2056 20.3217C19.9899 20.5374 19.1348 20.6135 17.467 20.564L15.0424 20.4923L14.969 17.9828C14.9213 16.3514 14.9991 15.3486 15.1919 15.117C15.3837 14.8862 16.5253 14.7607 17.6767 14.7492V14.7473ZM11.6895 14.7597C13.1857 14.7597 14.161 14.872 14.3545 15.0657C14.5473 15.2584 14.6605 16.2258 14.6605 17.6893C14.6605 19.1527 14.5482 20.12 14.3545 20.3129C14.1609 20.5065 13.1847 20.6188 11.6895 20.6188C8.859 20.6188 8.8015 20.5614 8.8015 17.6894C8.8015 14.8175 8.85898 14.76 11.6895 14.76V14.7597ZM23.5985 14.7597C25.565 14.7597 25.8843 14.8225 26.115 15.2522C26.4598 15.896 26.4554 19.4887 26.1097 20.135C25.8665 20.5895 25.6092 20.6302 23.3711 20.5638L20.9014 20.4913L20.828 17.9818C20.7803 16.3504 20.8581 15.3476 21.0509 15.116C21.2631 14.8605 21.9802 14.7606 23.5984 14.7606L23.5985 14.7597ZM29.4901 14.7633C31.4266 14.7597 31.7441 14.8225 31.9741 15.2523C32.3189 15.896 32.3154 19.4887 31.9696 20.135C31.7265 20.5895 31.4692 20.6302 29.231 20.5638L26.7614 20.4913L26.6889 17.8376C26.6349 15.8861 26.7021 15.1292 26.9435 14.9761C27.1239 14.8621 28.2699 14.7666 29.4911 14.7648L29.4901 14.7633ZM35.0388 14.7686C36.0761 14.7553 37.1407 14.8004 37.4379 14.9145C37.7686 15.0418 37.8411 15.5343 37.8411 17.6741C37.8411 19.1066 37.7606 20.3595 37.6625 20.4577C37.5643 20.5559 36.3892 20.6036 35.0513 20.5639L32.6188 20.4922L32.5463 17.8385C32.4923 15.887 32.5595 15.13 32.8009 14.977C32.9911 14.8568 34.0009 14.7834 35.039 14.7701L35.0388 14.7686ZM11.689 20.8735C13.1852 20.8735 14.1605 20.9858 14.3541 21.1794C14.5442 21.3695 14.66 22.3113 14.66 23.6756C14.66 25.0399 14.5451 25.9818 14.3541 26.1717C14.1604 26.3654 13.1842 26.4777 11.689 26.4777C8.87439 26.4777 8.80105 26.4069 8.80105 23.6755C8.80105 20.944 8.87356 20.8735 11.689 20.8735ZM24.5725 20.9053C25.5673 20.9115 25.8503 21.0132 26.0563 21.2944C26.4507 21.8338 26.4896 25.2841 26.1094 25.9942C25.8662 26.4487 25.6089 26.4894 23.3708 26.4231L20.9011 26.3506V21.0008L23.3178 20.9265C23.8306 20.9106 24.2409 20.9027 24.5725 20.9044L24.5725 20.9053ZM30.4316 20.9053C31.4264 20.9115 31.7093 21.0132 31.9154 21.2944C32.3097 21.8338 32.3487 25.2841 31.9684 25.9942C31.7253 26.4487 31.4679 26.4894 29.2298 26.4231L26.7602 26.3506V21.0008L29.1769 20.9265C29.6897 20.9106 30.1 20.9027 30.4316 20.9044L30.4316 20.9053ZM40.1222 20.9062C40.4016 20.9088 40.7199 20.9177 41.0842 20.9283L43.5724 21.0017L43.6467 23.4023C43.6874 24.7225 43.6618 25.955 43.591 26.1409C43.4964 26.3885 42.8129 26.4787 41.0258 26.4787C38.1786 26.4787 38.1573 26.4575 38.1573 23.6765C38.1573 21.2102 38.1697 20.891 40.123 20.9071L40.1222 20.9062ZM18.4688 20.915C19.4008 20.9265 19.9906 21.0061 20.1639 21.1494C20.6254 21.5331 20.6679 25.7184 20.2143 26.172C19.865 26.5213 15.7496 26.5947 15.2244 26.2613C14.9839 26.1092 14.9158 25.3762 14.9698 23.5272L15.0432 21.001L17.4252 20.9276C17.8099 20.9161 18.1584 20.9115 18.4688 20.915ZM32.6194 21.0008H37.7145L37.7888 23.4014C37.8295 24.7216 37.8029 25.9578 37.7295 26.1488C37.627 26.4159 37.0239 26.4787 35.1087 26.4229L32.6204 26.3504V23.6757L32.6194 21.0008ZM38.6005 26.7139L41.086 26.7872L43.5724 26.8598L43.6458 29.386C43.6998 31.2359 43.6317 31.968 43.3912 32.1201C42.9384 32.4075 39.0734 32.3827 38.611 32.09C38.1361 31.7894 37.9328 28.446 38.3271 27.423L38.6005 26.7139ZM11.69 26.7324C13.1861 26.7324 14.1614 26.8447 14.355 27.0384C14.5451 27.2285 14.6609 28.1702 14.6609 29.5345C14.6609 30.8989 14.546 31.8408 14.355 32.0307C14.1613 32.2243 13.1851 32.3366 11.69 32.3366C8.8753 32.3366 8.80196 32.2659 8.80196 29.5344C8.80196 26.8031 8.87447 26.7324 11.69 26.7324ZM24.5734 26.7643C25.5682 26.7704 25.8512 26.8721 26.0572 27.1533C26.4489 27.6892 26.4923 31.1412 26.1156 31.8443C25.8857 32.2741 25.5682 32.3369 23.6316 32.3333C22.4105 32.3307 21.2636 32.2361 21.0832 32.1211C20.8427 31.969 20.7746 31.236 20.8285 29.3871L20.9019 26.8608L23.3186 26.7865C23.8315 26.7706 24.2418 26.7625 24.5734 26.7643ZM30.4325 26.7643C31.4273 26.7704 31.7102 26.8721 31.9163 27.1533C32.2991 27.6768 32.3496 30.7399 31.9905 31.6834C31.75 32.3165 31.6731 32.3369 29.5066 32.3333C28.2775 32.3307 27.1236 32.2361 26.9432 32.1211C26.7027 31.969 26.6346 31.236 26.6886 29.387L26.762 26.8608L29.1787 26.7865C29.6915 26.7706 30.1018 26.7626 30.4334 26.7644L30.4325 26.7643ZM18.4694 26.774C19.4014 26.7855 19.9912 26.8651 20.1645 27.0083C20.6261 27.3921 20.6686 31.5773 20.2149 32.031C19.7613 32.4846 15.5762 32.4421 15.1932 31.9797C15.0022 31.7498 14.9235 30.7789 14.9704 29.2411L15.0438 26.859L17.4258 26.7856C17.8105 26.7741 18.1589 26.7697 18.4693 26.7732L18.4694 26.774ZM32.6201 26.8598H37.7152L37.7886 29.386C37.8425 31.2359 37.7744 31.968 37.5339 32.1201C37.3535 32.2341 36.2889 32.3279 35.1677 32.3279C34.0465 32.3279 32.9827 32.2341 32.8024 32.1201C32.5619 31.968 32.4938 31.2349 32.5477 29.386L32.6201 26.8598ZM30.5978 32.6197C31.635 32.6232 31.7889 32.7382 31.995 33.1228C32.4238 33.924 32.2169 37.6368 31.7261 37.9472C31.261 38.2416 27.3969 38.2673 26.9423 37.979C26.7018 37.8269 26.6337 37.0938 26.6877 35.2449L26.761 32.7187L29.2307 32.6462C29.8072 32.6294 30.2521 32.6188 30.5978 32.6197ZM39.7365 32.6197C40.0822 32.6188 40.527 32.6285 41.1036 32.6462L43.5732 32.7187L43.6466 35.245C43.7006 37.0948 43.6325 37.8269 43.392 37.979C42.9375 38.2673 39.0733 38.2417 38.6081 37.9472C38.1174 37.6368 37.9105 33.924 38.3402 33.1229C38.5462 32.7382 38.6993 32.6241 39.7365 32.6197ZM18.4695 32.6329C19.4015 32.6444 19.9913 32.724 20.1646 32.8673C20.6961 33.3085 20.6607 37.255 20.1204 37.7953C19.5801 38.3356 15.6347 38.3709 15.1933 37.8386C15.0023 37.6087 14.9236 36.6378 14.9705 35.1L15.0439 32.718L17.4259 32.6446C17.8106 32.6331 18.159 32.6287 18.4693 32.6322L18.4695 32.6329ZM24.3286 32.6329C25.2606 32.6444 25.8504 32.724 26.0237 32.8673C26.5551 33.3085 26.5198 37.255 25.9795 37.7953C25.4392 38.3356 21.4938 38.3709 21.0524 37.8386C20.8614 37.6087 20.7827 36.6378 20.8295 35.1L20.9029 32.718L23.285 32.6446C23.6696 32.6331 24.018 32.6287 24.3284 32.6322L24.3286 32.6329ZM32.6202 32.7187H37.7153L37.7887 35.245C37.8426 37.0948 37.7745 37.8269 37.534 37.979C37.3536 38.0931 36.289 38.1868 35.1678 38.1868C34.0466 38.1868 32.9828 38.0931 32.8025 37.979C32.562 37.8269 32.4939 37.0939 32.5478 35.245L32.6202 32.7187ZM30.1408 38.4841C32.1109 38.4788 32.2258 38.8333 32.286 40.9829L32.3329 42.6542L32.477 40.616L32.6202 38.5778H37.7153L37.7887 41.104C37.8426 42.9539 37.7746 43.686 37.534 43.8381C37.1529 44.0795 33.4923 44.1281 32.8962 43.8991C32.6743 43.8142 32.493 43.5631 32.493 43.342C32.493 43.0255 32.3825 43.0582 31.974 43.4968C31.5203 43.984 31.1896 44.0539 29.3628 44.0503C28.2124 44.0477 27.123 43.9531 26.9427 43.8381C26.7022 43.686 26.6341 42.953 26.6881 41.104L26.7614 38.5778L29.1782 38.5035C29.5407 38.492 29.8599 38.4841 30.1411 38.4832L30.1408 38.4841ZM24.3286 38.492C25.2606 38.5035 25.8504 38.5831 26.0237 38.7264C26.5551 39.1676 26.5198 43.114 25.9795 43.6544C25.6797 43.9541 25.0537 44.054 23.4956 44.0505C22.3496 44.0479 21.2646 43.9532 21.0843 43.8383C20.8438 43.6862 20.7757 42.9532 20.8296 41.1042L20.903 38.578L23.2851 38.5046C23.6697 38.4931 24.0182 38.4885 24.3286 38.492ZM64.9027 61.0448L60.958 64.9983L64.7168 68.7669C66.0273 67.4555 67.3386 66.1442 68.6509 64.8337L64.9027 61.0448ZM71.1746 66.6465L66.8816 71.3205L68.3105 73.0934H77.9515L71.1746 66.6465ZM81.2614 76.1503L71.4673 76.3484L74.9185 79.972L84.7125 79.774L81.2614 76.1503ZM77.7216 83.028L81.2604 86.5942H91.7044L88.1656 83.028H77.7216ZM94.6019 89.6511L84.7123 89.8668C84.7123 90.1533 90.2857 95.3438 91.0001 95.7232C91.3061 95.8859 91.5926 96.0097 91.6368 95.9991C93.0976 95.6339 95.9201 92.7812 95.9201 91.6707C95.8883 90.9182 95.0164 90.2444 94.6008 89.6519L94.6019 89.6511Z" fill="#3B4650"/>
<path d="M98.6393 55.8564L16.6377 56.0262L24.8718 67.9105L16.6377 80.1343H98.6393L90.5749 67.9105L98.6393 55.8564Z" fill="#3B4650"/>
<path d="M42.5655 58.2334H49.9077V58.7559H48.3953V76.9601H49.9077V77.4826H41.5205V76.9601H43.033V59.7733H42.923L38.7982 77.4826H35.3608L30.521 59.6908H30.411V76.9601H31.9234V77.4826H28.1836V76.9601H29.696V58.7559H28.1836V58.2334H35.6083L39.2656 72.3953L42.5655 58.2334Z" fill="white"/>
<path d="M51.0033 58.2334H59.088C61.8562 58.2334 63.9186 58.6367 65.2753 59.4433C66.6319 60.2316 67.3102 61.6524 67.3102 63.7057C67.3102 65.9789 66.4852 67.5463 64.8353 68.408C63.2953 69.1963 61.1413 69.5904 58.373 69.5904H58.153V76.9601H61.5904V77.4826H51.0033V76.9601H52.7908V58.7559H51.0033V58.2334ZM58.153 58.7559V69.0679H58.7305C59.8305 69.0679 60.5913 68.6921 61.0129 67.9405C61.4346 67.1889 61.6454 65.9697 61.6454 64.2831V62.9632C61.6454 61.4049 61.4437 60.3141 61.0404 59.6908C60.6554 59.0675 59.9405 58.7559 58.8955 58.7559H58.153Z" fill="white"/>
<path d="M77.039 67.748H75.5815V76.9601H77.3689V77.4826H68.4318V76.9601H70.2192V58.7559H68.4318V58.2334H76.7365C79.1197 58.2334 80.8063 58.3617 81.7963 58.6184C82.8046 58.8567 83.5104 59.15 83.9137 59.4983C84.7936 60.2133 85.2336 61.3499 85.2336 62.9082C85.2336 64.4665 84.8486 65.5848 84.0787 66.2631C83.3087 66.923 82.1354 67.3172 80.5588 67.4455V67.528C82.0438 67.7297 83.0795 68.1697 83.6662 68.848C84.2528 69.5263 84.5462 70.6629 84.5462 72.2578V73.7153C84.5462 74.6685 84.592 75.3102 84.6836 75.6402C84.7936 75.9702 85.0136 76.1352 85.3436 76.1352C85.6736 76.1352 85.9303 75.9885 86.1136 75.6952C86.3152 75.3835 86.4986 74.7419 86.6636 73.7703L87.131 73.8253C86.9294 75.3835 86.5719 76.4285 86.0586 76.9601C85.5636 77.4918 84.5645 77.7576 83.0612 77.7576C81.5579 77.7576 80.4855 77.4093 79.8438 76.7126C79.2205 75.9977 78.9089 74.6685 78.9089 72.7253V70.7179C78.9089 69.6913 78.7714 68.9396 78.4964 68.463C78.2397 67.9863 77.7539 67.748 77.039 67.748ZM75.5815 58.7559V67.2255H76.4615C77.5064 67.2255 78.2764 66.9047 78.7714 66.2631C79.2847 65.6214 79.5414 64.5765 79.5414 63.1282V62.3307C79.5414 60.8825 79.2939 59.9292 78.7989 59.4708C78.3222 58.9942 77.5523 58.7559 76.489 58.7559H75.5815Z" fill="white"/>
</svg>
