<svg width="26" height="26" viewBox="0 0 26 26" fill="none" xmlns="http://www.w3.org/2000/svg">
<path d="M13 10.6367V15.6713H19.9963C19.6891 17.2904 18.7672 18.6613 17.3845 19.5831L21.6036 22.8568C24.0617 20.5878 25.4799 17.255 25.4799 13.2959C25.4799 12.3741 25.3972 11.4877 25.2435 10.6369L13 10.6367Z" fill="#4285F4"/>
<path d="M5.71628 15.4736L4.76472 16.202L1.39648 18.8256C3.53557 23.0683 7.91979 25.9993 13.0016 25.9993C16.5115 25.9993 19.4542 24.8411 21.6051 22.8557L17.3861 19.582C16.2279 20.362 14.7506 20.8348 13.0016 20.8348C9.62159 20.8348 6.74985 18.5539 5.7216 15.4811L5.71628 15.4736Z" fill="#34A853"/>
<path d="M1.39444 7.17383C0.508129 8.92285 0 10.8965 0 13.0001C0 15.1037 0.508129 17.0774 1.39444 18.8264C1.39444 18.8381 5.71997 15.47 5.71997 15.47C5.45997 14.69 5.30629 13.8628 5.30629 13C5.30629 12.1371 5.45997 11.3099 5.71997 10.5299L1.39444 7.17383Z" fill="#FBBC05"/>
<path d="M13.0018 5.17636C14.9164 5.17636 16.6182 5.83816 17.9773 7.11454L21.7 3.39186C19.4427 1.28826 16.5119 0 13.0018 0C7.92006 0 3.53557 2.91909 1.39648 7.17364L5.72188 10.53C6.75 7.45725 9.62185 5.17636 13.0018 5.17636Z" fill="#EA4335"/>
</svg>
