<svg width="119" height="20" viewBox="0 0 119 20" fill="none" xmlns="http://www.w3.org/2000/svg">
<rect opacity="0.2" y="9" width="40" height="1.5" rx="0.75" fill="#13013C"/>
<path d="M62.2669 0.000291888C62.2289 -0.000260778 62.1908 0.000107682 62.1529 0.000291888C61.4213 0.00950268 60.6649 0.190035 59.9205 0.547582C58.759 1.10558 57.5259 2.18582 56.7637 3.31341C56.4564 3.76806 56.2872 4.09929 56.1096 4.59371C55.8259 5.38383 55.7918 5.68023 55.7833 7.42623C55.7759 8.92983 55.7671 9.07442 55.6566 9.46221C55.3819 10.4264 55.0508 10.8943 53.6241 12.3369L52.4674 13.5064L53.2868 14.3258L54.4278 13.1819C55.0555 12.5528 55.7241 11.9298 55.9139 11.7974C56.392 11.4638 56.6836 11.3227 57.2097 11.1701C57.8386 10.9879 58.5503 10.9279 59.4688 10.9796C61.6613 11.1032 63.0032 10.6125 64.53 9.1286C65.6436 8.04614 66.3196 6.97009 66.6479 5.75794C66.8017 5.18962 66.8113 4.02387 66.6665 3.49908C66.4333 2.65426 66.0352 1.96417 65.4306 1.35755C64.5504 0.474244 63.4436 0.014058 62.2668 5.15408e-05L62.2669 0.000291888ZM62.2555 0.555505C62.9312 0.55569 63.0369 0.569322 63.4231 0.703983C63.6566 0.78541 64.0148 0.950101 64.2191 1.07002C64.6487 1.32204 65.3518 2.00421 65.6462 2.45478C66.8165 4.24539 66.2965 6.58051 64.2721 8.62424C63.3551 9.54994 62.5014 10.0495 61.475 10.261C60.8877 10.382 59.7297 10.369 59.1855 10.2354C57.6515 9.85849 56.6273 8.63843 56.4408 6.96647C56.2959 5.6659 56.6658 4.31246 57.4474 3.28357C58.0929 2.43394 59.3156 1.43198 60.2291 1.00386C60.9908 0.646846 61.4057 0.555106 62.2555 0.555657L62.2555 0.555505ZM62.476 1.03173L62.4454 1.37658L62.4146 1.72144L61.9113 1.73691C61.3351 1.7546 61.2798 1.72162 61.2649 1.353C61.2572 1.16178 61.2528 1.17044 61.2251 1.42945L61.194 1.72126L60.6907 1.73673C60.2574 1.74999 60.1777 1.73876 60.1172 1.65715C60.0506 1.56688 60.0443 1.56688 59.9942 1.65512C59.9653 1.70615 59.889 1.75036 59.8247 1.75331C59.7169 1.75828 59.7182 1.76141 59.8405 1.79549C59.9717 1.83197 59.9732 1.83897 59.9732 2.4139V2.99529H58.9117L58.8809 2.67696C58.854 2.39916 58.8489 2.38774 58.8412 2.58762C58.827 2.95237 58.7658 3.02071 58.4456 3.02937L58.1689 3.03674L58.4443 3.07027C58.5958 3.08869 58.735 3.11909 58.7536 3.13769C58.819 3.20309 58.8408 4.07443 58.7798 4.18827C58.7249 4.29088 58.6816 4.29807 58.206 4.28406L57.6915 4.26896L57.6596 4.03021C57.6389 3.87565 57.6249 3.84415 57.6198 3.94087C57.6089 4.14351 57.521 4.29475 57.4111 4.29973C57.3383 4.30304 57.3359 4.30967 57.3996 4.33233C57.5616 4.39018 57.6119 4.52945 57.6119 4.91943C57.6119 5.45752 57.5736 5.51373 57.1989 5.52585L56.8954 5.5358L57.1872 5.55459C57.5638 5.57891 57.6119 5.64523 57.6119 6.14004C57.6119 6.69322 57.5802 6.73449 57.1456 6.74684L56.7891 6.75697L57.134 6.77521C57.377 6.78811 57.4986 6.81942 57.5454 6.88132C57.6216 6.98246 57.6356 7.73114 57.5634 7.84532C57.5376 7.88584 57.4247 7.93687 57.3121 7.95861L57.1077 7.99821L57.3048 8.00429C57.5496 8.01185 57.6084 8.10856 57.6213 8.52433C57.6307 8.82847 57.6312 8.82718 57.6611 8.43498L57.6913 8.03689L58.2058 8.02178C58.6864 8.0076 58.7244 8.01423 58.7817 8.12108C58.8496 8.248 58.8334 9.03518 58.7614 9.10738C58.7373 9.13151 58.5582 9.16559 58.3635 9.18291L58.0096 9.21441L58.3661 9.2227C58.747 9.23154 58.8231 9.2857 58.8399 9.55927C58.8441 9.62687 58.862 9.58671 58.8797 9.46992L58.9119 9.2577H59.9734L59.9966 9.60256C60.0115 9.82417 60.0259 9.88109 60.0369 9.76172C60.0463 9.65948 60.0671 9.49755 60.0828 9.40176L60.1115 9.22749L61.194 9.2577L61.2248 9.57603C61.2544 9.88202 61.2561 9.8846 61.2646 9.64659C61.2797 9.22602 61.2725 9.23099 61.8648 9.23099C62.3614 9.23099 62.394 9.23781 62.4353 9.34944L62.4791 9.46808L62.5167 9.34944C62.5374 9.28423 62.5946 9.2297 62.6437 9.22804C62.7155 9.22602 62.7096 9.20888 62.6136 9.14201C62.5053 9.06648 62.4943 9.01619 62.495 8.60095C62.4954 8.34912 62.5153 8.11223 62.5392 8.07465C62.5709 8.02454 62.7236 8.01035 63.1088 8.02159L63.6351 8.03688L63.6659 8.35521C63.6955 8.6612 63.6972 8.66396 63.7057 8.42577C63.7197 8.03523 63.7407 8.01127 64.0785 8.00059L64.3781 7.99101L64.1141 7.97056C63.9689 7.95933 63.8197 7.92488 63.7825 7.89411C63.7119 7.83553 63.6841 7.03731 63.7469 6.87353C63.7733 6.805 63.8738 6.78952 64.2977 6.78952C64.8476 6.78952 64.9051 6.81292 64.9495 7.0548C64.9699 7.16588 64.9751 7.15906 64.9812 7.01335C64.9856 6.90577 65.0217 6.82637 65.0755 6.80574C65.1558 6.77497 65.1556 6.76724 65.0735 6.70718C64.9985 6.65247 64.9869 6.55889 64.9996 6.11877L65.0149 5.59539L65.6516 5.53681L65.0149 5.48928V4.37475L65.758 4.32685L65.0149 4.26864L64.9998 3.71579C64.9832 3.11431 64.9968 3.0828 65.2804 3.0679C65.4163 3.06072 65.4086 3.05482 65.2273 3.02719L65.0151 2.99495L64.9543 2.25181L64.9449 2.5729C64.9397 2.74957 64.9069 2.92255 64.8718 2.95773C64.831 2.99845 64.6231 3.02148 64.2937 3.02148C63.8737 3.02148 63.7735 3.006 63.7471 2.93747C63.687 2.78107 63.7119 1.93108 63.7786 1.86459C63.8136 1.82958 63.9868 1.79643 64.1634 1.7909L64.4845 1.78095L64.1678 1.76142C63.8068 1.73913 63.7178 1.68645 63.708 1.48934C63.7023 1.37567 63.695 1.38433 63.6682 1.53576L63.6355 1.72145L63.1392 1.73674C62.8188 1.74669 62.6166 1.73011 62.5687 1.69032C62.5235 1.65292 62.4907 1.51126 62.4852 1.32999L62.476 1.03137L62.476 1.03173ZM60.4293 1.80784C60.4984 1.80728 60.5839 1.80913 60.6907 1.81244L61.194 1.82792V2.9955L60.6795 3.01061C60.2133 3.02442 60.1597 3.01595 60.109 2.92126C60.0294 2.77241 60.0377 2.00183 60.1202 1.88888C60.163 1.8303 60.2221 1.80931 60.4293 1.80784ZM61.65 1.80784C61.7191 1.80728 61.8045 1.80913 61.9114 1.81244L62.4147 1.82792V2.9955L61.9095 3.01042C61.5621 3.02074 61.3841 3.00508 61.339 2.95995C61.2495 2.87042 61.2508 2.01194 61.3407 1.8889C61.3834 1.83032 61.4425 1.80932 61.6498 1.80784L61.65 1.80784ZM62.9216 1.80986C62.9863 1.80913 63.0591 1.80986 63.1392 1.81244L63.6355 1.82773V2.99532L63.0979 3.01024C62.6429 3.02295 62.5552 3.01208 62.5274 2.9395C62.5093 2.89234 62.4944 2.64364 62.4944 2.38702C62.4944 2.05174 62.5152 1.90288 62.5687 1.8585C62.6046 1.82866 62.7275 1.81189 62.9216 1.80968L62.9216 1.80986ZM63.0867 3.07233C63.3266 3.07473 63.5644 3.10089 63.6044 3.14897C63.6444 3.19723 63.6606 3.40613 63.6508 3.74601L63.6355 4.26883L63.1304 4.28375C62.7829 4.29406 62.605 4.27841 62.5598 4.23327C62.4718 4.14522 62.4703 3.22617 62.5582 3.13827C62.6053 3.09111 62.847 3.06956 63.0869 3.07195L63.0867 3.07233ZM61.8528 3.07491C62.1899 3.07491 62.3393 3.09573 62.3835 3.14897C62.4235 3.19723 62.4397 3.40613 62.43 3.74601L62.4147 4.26882L61.9002 4.28393C61.4339 4.29775 61.3803 4.28927 61.3296 4.19459C61.2576 4.05992 61.2569 3.31142 61.3285 3.17735C61.3764 3.08782 61.4431 3.07474 61.8528 3.07474L61.8528 3.07491ZM64.3338 3.07491C64.9235 3.07491 64.9355 3.08689 64.9355 3.68521C64.9355 4.28353 64.9235 4.2955 64.3338 4.2955C64.0221 4.2955 63.819 4.27211 63.7786 4.23176C63.7385 4.1916 63.7149 3.99007 63.7149 3.68518C63.7149 3.3803 63.7383 3.17878 63.7786 3.1386C63.819 3.09825 64.0224 3.07485 64.3338 3.07485V3.07491ZM60.6253 3.07565C60.8797 3.0762 61.1185 3.09591 61.1561 3.11968C61.2064 3.15155 61.2204 3.30924 61.2091 3.71582L61.194 4.26868L60.6795 4.28378C60.2132 4.2976 60.1597 4.28913 60.109 4.19444C60.0369 4.05978 60.0362 3.31128 60.1079 3.1772C60.1558 3.08767 60.2219 3.07459 60.6253 3.07533L60.6253 3.07565ZM59.4693 3.07675C59.6854 3.07952 59.896 3.09462 59.9356 3.11986C59.9859 3.15173 59.9999 3.30942 59.9887 3.71601L59.9736 4.26886L59.4668 4.28379C59.188 4.29208 58.9432 4.28213 58.9228 4.26168C58.9023 4.24123 58.8856 3.98038 58.8856 3.68175C58.8856 3.23576 58.9005 3.13333 58.9696 3.10683C59.0317 3.08306 59.2533 3.07367 59.4694 3.07643L59.4693 3.07675ZM64.3339 4.34861C64.9203 4.34861 64.9356 4.36335 64.9356 4.9324C64.9356 5.50145 64.9205 5.51619 64.3339 5.51619C64.0222 5.51619 63.819 5.4928 63.7787 5.45245C63.7391 5.41284 63.7149 5.21665 63.7149 4.93242C63.7149 4.64819 63.7389 4.45195 63.7787 4.41239C63.819 4.37204 64.0224 4.34861 64.3339 4.34861ZM60.4294 4.35524C60.4985 4.35469 60.5839 4.35653 60.6908 4.35985L61.1941 4.37532V5.48985L60.6796 5.50495C60.2133 5.51877 60.1597 5.5103 60.109 5.41561C60.0298 5.2675 60.0379 4.54886 60.1203 4.43648C60.163 4.37789 60.2221 4.35689 60.4294 4.35542V4.35524ZM61.65 4.35524C61.7191 4.35469 61.8046 4.35653 61.9114 4.35985L62.4147 4.37532V5.48985L61.9002 5.50495C61.4339 5.51877 61.3804 5.5103 61.3297 5.41561C61.2505 5.2675 61.2586 4.54886 61.3409 4.43648C61.3836 4.37789 61.4428 4.35689 61.65 4.35542V4.35524ZM58.4106 4.35542C58.8177 4.35211 58.8201 4.41861 58.8201 4.93238C58.8201 5.51174 58.8155 5.51617 58.2225 5.51617C57.8502 5.51617 57.7078 5.49738 57.6881 5.4458C57.6731 5.40711 57.668 5.15031 57.6764 4.87526L57.6919 4.37513L58.2103 4.35984C58.2862 4.35781 58.3525 4.35578 58.4107 4.35523L58.4106 4.35542ZM62.9217 4.35727C62.9863 4.35653 63.0591 4.35727 63.1392 4.35985L63.6355 4.37514L63.6508 4.90144C63.662 5.28683 63.6479 5.43934 63.5977 5.47104C63.4883 5.54049 62.631 5.52501 62.5582 5.45243C62.4637 5.35793 62.4725 4.48603 62.5687 4.40605C62.6046 4.3762 62.7275 4.35948 62.9217 4.35727ZM58.9123 4.37514H59.9738V5.48966L59.4554 5.50477C59.0564 5.51656 58.9306 5.50348 58.9094 5.44766C58.8941 5.40787 58.8886 5.15034 58.8971 4.87529L58.9126 4.37515L58.9123 4.37514ZM58.7278 5.56536L58.7847 5.71328C58.8668 5.92642 58.8243 6.62295 58.7254 6.68558C58.6288 6.74656 57.8236 6.75153 57.7295 6.69184C57.6794 6.66016 57.6652 6.50744 57.6764 6.12224L57.6917 5.59594L58.2097 5.58083L58.7277 5.56554L58.7278 5.56536ZM64.3341 5.56923C64.9205 5.56923 64.9358 5.58396 64.9358 6.15302C64.9358 6.72205 64.9207 6.73681 64.3341 6.73681C64.0224 6.73681 63.8192 6.71341 63.7789 6.67307C63.7393 6.63346 63.7152 6.43727 63.7152 6.15304C63.7152 5.86879 63.7391 5.67257 63.7789 5.633C63.8193 5.59266 64.0226 5.56923 64.3341 5.56923ZM60.4296 5.57586C60.4987 5.5753 60.5842 5.57715 60.691 5.58046L61.1943 5.59594L61.2096 6.12224C61.2208 6.50763 61.2067 6.66015 61.1565 6.69184C61.119 6.7156 60.8787 6.7355 60.6225 6.73605C60.1712 6.73679 60.1553 6.73273 60.105 6.60065C60.0302 6.4039 60.0407 5.76597 60.1205 5.65689C60.1632 5.5983 60.2224 5.57733 60.4296 5.57586ZM61.6503 5.57586C61.7193 5.5753 61.8048 5.57715 61.9117 5.58046L62.4149 5.59594L62.4302 6.12224C62.4415 6.50763 62.4273 6.66015 62.3772 6.69184C62.3396 6.7156 62.1007 6.7355 61.8463 6.73605C61.4428 6.73679 61.3767 6.72371 61.3288 6.63418C61.2503 6.48754 61.2593 5.76856 61.3411 5.65688C61.3839 5.5983 61.443 5.57733 61.6503 5.57586ZM62.9219 5.57788C62.9866 5.57715 63.0593 5.57788 63.1395 5.58046L63.6357 5.59575L63.651 6.09202C63.661 6.41237 63.6444 6.61464 63.6046 6.66256C63.5247 6.75872 62.6527 6.76775 62.5582 6.67324C62.4637 6.57874 62.4726 5.70684 62.5687 5.62686C62.6047 5.59701 62.7275 5.58025 62.9217 5.57804L62.9219 5.57788ZM58.9126 5.59575H59.974L59.9893 6.12206C60.0006 6.50744 59.9864 6.65996 59.9363 6.69165C59.8987 6.71542 59.6769 6.73494 59.4433 6.73494C59.2097 6.73494 58.9879 6.71542 58.9504 6.69165C58.9003 6.65997 58.8861 6.50725 58.8973 6.12206L58.9126 5.59575ZM58.4913 6.79574C58.7074 6.79647 58.7394 6.82024 58.7823 6.90056C58.8717 7.06746 58.8286 7.84097 58.7263 7.90563C58.6294 7.96697 57.8244 7.97232 57.7297 7.91226C57.6796 7.88058 57.6654 7.72786 57.6766 7.34266L57.6919 6.81636L58.2065 6.80125C58.3266 6.79775 58.4192 6.79555 58.4913 6.79574ZM60.3953 6.79574C60.4674 6.79555 60.5599 6.79758 60.6801 6.80126L61.1947 6.81637L61.21 7.34267C61.2212 7.72806 61.207 7.88058 61.1569 7.91227C61.0622 7.97232 60.2574 7.96698 60.1603 7.90564C60.058 7.84098 60.0149 7.06747 60.1043 6.90057C60.1472 6.82043 60.1793 6.79666 60.3953 6.79574ZM61.7014 6.7985C61.7661 6.79776 61.8389 6.7985 61.919 6.80108L62.4153 6.81637L62.4306 7.31263C62.4405 7.63299 62.4239 7.83526 62.3841 7.88317C62.2922 7.99389 61.4702 7.9867 61.3577 7.87415C61.2451 7.76159 61.2377 6.93944 61.3484 6.84747C61.3844 6.81763 61.5072 6.80087 61.7014 6.79865L61.7014 6.7985ZM62.9221 6.7985C62.9867 6.79776 63.0595 6.7985 63.1396 6.80108L63.6359 6.81637L63.6512 7.31263C63.6611 7.63299 63.6446 7.83526 63.6048 7.88317C63.5128 7.99389 62.6909 7.9867 62.5783 7.87415C62.4657 7.76159 62.4584 6.93944 62.5691 6.84747C62.605 6.81763 62.7279 6.80087 62.922 6.79865L62.9221 6.7985ZM58.9127 6.81637H59.9742L59.9895 7.34267C60.0007 7.72806 59.9866 7.88058 59.9364 7.91227C59.8989 7.93603 59.6771 7.95556 59.4435 7.95556C59.2099 7.95556 58.9881 7.93603 58.9505 7.91227C58.9004 7.88058 58.8862 7.72786 58.8975 7.34267L58.9127 6.81637ZM60.4908 8.01729C60.5493 8.01748 60.6158 8.01914 60.6914 8.02153L61.1947 8.03701L61.2099 8.56331C61.2212 8.9487 61.207 9.10122 61.1569 9.13291C61.1193 9.15667 60.8925 9.17657 60.6528 9.17712C60.2722 9.17786 60.2034 9.16312 60.1089 9.0618C60.0237 8.97043 60.0007 8.96361 60.0007 9.02956C60.0007 9.0758 59.963 9.12793 59.9167 9.14562C59.7926 9.19333 59.0297 9.1832 58.9505 9.13291C58.9004 9.10122 58.8862 8.9485 58.8975 8.56331L58.9127 8.037H59.9742L60.0343 8.88626L60.044 8.53809C60.0566 8.09044 60.0805 8.01655 60.4909 8.01749L60.4908 8.01729ZM61.7014 8.01895C61.7661 8.01822 61.8389 8.01895 61.919 8.02153L62.4153 8.03682L62.4306 8.56313C62.4418 8.94851 62.4276 9.10103 62.3775 9.13272C62.3399 9.15649 62.1139 9.17638 61.8752 9.17694C61.5506 9.17749 61.4201 9.15667 61.3577 9.09441C61.2451 8.98185 61.2377 8.1597 61.3485 8.06773C61.3844 8.03789 61.5073 8.02117 61.7014 8.01895ZM51.9417 13.8847L50.5298 15.2278H52.5384L52.8361 14.8585L51.9417 13.8847ZM49.8403 15.8647L49.1213 16.6196L51.1617 16.6609L51.8807 15.9061L49.8403 15.8648V15.8647ZM48.4019 17.2975L47.6647 18.0405H49.8405L50.5777 17.2975H48.4019ZM47.061 18.6773C46.9746 18.8007 46.7928 18.9411 46.7861 19.0979C46.7861 19.3295 47.3742 19.9236 47.6785 19.9998C47.6877 20.0024 47.7474 19.9762 47.8111 19.9423C47.96 19.8633 49.1211 18.7818 49.1211 18.7223L47.0608 18.6773L47.061 18.6773Z" fill="#13013C"/>
<path d="M47.5024 0.000136014C46.3256 0.0141368 45.219 0.474329 44.3388 1.35763C43.7344 1.96425 43.3361 2.65434 43.1029 3.49916C42.9581 4.02401 42.9677 5.18994 43.1217 5.75803C43.45 6.97037 44.1261 8.04622 45.2396 9.12868C46.7663 10.6126 48.1081 11.1035 50.3008 10.9799C51.2194 10.9281 51.931 10.988 52.5599 11.1704C52.7487 11.2251 52.907 11.2787 53.0547 11.3399L54.3249 10.0669C54.2429 9.87957 54.1761 9.6843 54.1129 9.46234C54.0023 9.07455 53.9935 8.92995 53.9861 7.42635C53.9777 5.68035 53.9436 5.38409 53.6599 4.59383C53.4825 4.09941 53.313 3.76797 53.0057 3.31354C52.2434 2.18594 51.0104 1.1057 49.8489 0.547705C49.1047 0.190138 48.3481 0.00961067 47.6166 0.0004145C47.5784 -0.000138167 47.5405 -0.000138167 47.5025 0.0004145L47.5024 0.000136014ZM47.5138 0.555349C48.3636 0.554797 48.7785 0.646721 49.5402 1.00355C50.4538 1.43167 51.6764 2.43363 52.3219 3.28326C53.1035 4.31191 53.4737 5.66559 53.3285 6.96616C53.1421 8.63831 52.1176 9.85839 50.5837 10.2351C50.0395 10.3688 48.8815 10.3817 48.2942 10.2607C47.2677 10.0492 46.4139 9.54963 45.497 8.62393C43.4728 6.58021 42.9528 4.24523 44.1231 2.45447C44.4175 2.00387 45.1205 1.32188 45.5503 1.06972C45.7546 0.949788 46.1129 0.785097 46.3463 0.703675C46.7324 0.56901 46.8382 0.555565 47.5139 0.555197L47.5138 0.555349ZM47.2933 1.03231L47.2841 1.33019C47.2786 1.51146 47.2458 1.65312 47.2007 1.69052C47.1528 1.73031 46.9505 1.7467 46.6301 1.73694L46.1339 1.72165L46.1011 1.53596C46.0744 1.38472 46.067 1.37606 46.0613 1.48953C46.0513 1.68683 45.9625 1.73952 45.6015 1.76162L45.2848 1.78115L45.6059 1.7911C45.7826 1.79663 45.9555 1.82978 45.9907 1.86479C46.0572 1.93129 46.0823 2.78129 46.0222 2.93767C45.9959 3.0062 45.8957 3.02167 45.4756 3.02167C45.1463 3.02167 44.9384 2.99883 44.8976 2.95793C44.8626 2.92293 44.8296 2.74976 44.8244 2.5731L44.815 2.25201L44.7542 2.99515L44.542 3.02739C44.3607 3.05502 44.353 3.06092 44.489 3.0681C44.7725 3.08302 44.7861 3.11452 44.7695 3.71598L44.7544 4.26884L44.0113 4.32705L44.7544 4.37495V5.48948L44.1178 5.53701L44.7544 5.59559L44.7697 6.11897C44.7826 6.55925 44.7708 6.65263 44.6958 6.70738C44.6137 6.76744 44.6137 6.77517 44.6938 6.80594C44.7476 6.82657 44.7837 6.90597 44.7881 7.01355C44.7942 7.15926 44.7994 7.16608 44.8198 7.055C44.8642 6.81312 44.9219 6.78972 45.4716 6.78972C45.8954 6.78972 45.9958 6.80501 46.0222 6.87372C46.085 7.0375 46.0572 7.83569 45.9866 7.89431C45.9494 7.92526 45.8002 7.95971 45.6551 7.97076L45.3911 7.99121L45.6906 8.00079C46.0285 8.01166 46.0495 8.03542 46.0635 8.42596C46.0721 8.66397 46.0736 8.66121 46.1033 8.35522L46.134 8.03689L46.6603 8.0216C47.0457 8.01037 47.1982 8.02455 47.2299 8.07466C47.2537 8.11224 47.2738 8.34914 47.2741 8.60096C47.2749 9.01619 47.2638 9.06648 47.1555 9.14203C47.0595 9.20909 47.0536 9.22585 47.1255 9.22806C47.1747 9.22972 47.2316 9.28424 47.2524 9.34946L47.29 9.46809L47.3338 9.34946C47.3751 9.23764 47.4077 9.23101 47.9044 9.23101C48.4965 9.23101 48.4894 9.22603 48.5046 9.6466C48.5132 9.88461 48.5147 9.88185 48.5444 9.57605L48.5751 9.25753L49.6576 9.22732L49.6865 9.40159C49.7023 9.49738 49.723 9.6595 49.7324 9.76155C49.7434 9.88092 49.7578 9.824 49.7727 9.60239L49.7959 9.25753H50.8574L50.8898 9.46975C50.9075 9.58655 50.9254 9.6267 50.9296 9.5591C50.9464 9.28553 51.0225 9.23137 51.4034 9.22253L51.7597 9.21424L51.4058 9.18274C51.2111 9.16542 51.032 9.13153 51.0079 9.10721C50.9359 9.035 50.9197 8.24781 50.9877 8.12091C51.0449 8.01388 51.0829 8.00743 51.5637 8.02161L52.0782 8.03672L52.1086 8.43481C52.1385 8.82701 52.139 8.8283 52.1484 8.52416C52.1613 8.10838 52.2201 8.01167 52.4649 8.00412L52.662 7.99804L52.4575 7.95844C52.345 7.9367 52.232 7.88567 52.2064 7.84515C52.1342 7.73093 52.148 6.98226 52.2243 6.88115C52.2711 6.81925 52.3927 6.78793 52.6357 6.77504L52.9805 6.7568L52.6242 6.74667C52.1897 6.73415 52.158 6.69288 52.158 6.13987C52.158 5.64506 52.2061 5.57876 52.5826 5.55442L52.8744 5.53563L52.5712 5.52568C52.1963 5.51353 52.158 5.45734 52.158 4.91926C52.158 4.52927 52.2083 4.38998 52.3702 4.33216C52.434 4.30932 52.4317 4.30287 52.3588 4.29956C52.2488 4.2944 52.1608 4.14334 52.1499 3.9407C52.1447 3.84398 52.1307 3.87548 52.1101 4.03004L52.0782 4.26879L51.5637 4.28389C51.0881 4.2979 51.0448 4.29071 50.9899 4.1881C50.9289 4.07426 50.9504 3.20289 51.0158 3.13752C51.0345 3.11892 51.1737 3.08852 51.3251 3.0701L51.6004 3.03657L51.3237 3.02902C51.0035 3.02036 50.9423 2.95202 50.9282 2.58726C50.9204 2.38757 50.9153 2.39899 50.8884 2.67661L50.8574 2.99494H49.7959V2.41355C49.7959 1.83862 49.7974 1.83178 49.9286 1.79514C50.0511 1.76106 50.0524 1.75793 49.9444 1.75296C49.8801 1.75001 49.804 1.7058 49.7751 1.65477C49.7252 1.56653 49.7189 1.56671 49.6521 1.65679C49.5916 1.73859 49.5117 1.74964 49.0784 1.73638L48.5751 1.7209L48.544 1.4291C48.5164 1.16991 48.5119 1.16125 48.5042 1.35265C48.4895 1.72127 48.434 1.75406 47.8578 1.73656L47.3545 1.72109L47.3237 1.37623L47.2933 1.03231ZM48.1194 1.80766C48.3266 1.80895 48.3856 1.83014 48.4285 1.88872C48.5184 2.01178 48.5199 2.87021 48.4301 2.95977C48.3852 3.00472 48.2071 3.02056 47.8596 3.01024L47.3545 2.99532V1.82774L47.858 1.81226C47.9648 1.80895 48.0503 1.80729 48.1194 1.80766ZM49.34 1.80766C49.5473 1.80895 49.6062 1.83014 49.6491 1.88872C49.7317 2.00146 49.7399 2.77221 49.6602 2.9211C49.6095 3.01578 49.5559 3.02426 49.0896 3.01044L48.5751 2.99534V1.82775L49.0786 1.81228C49.1855 1.80896 49.2709 1.80729 49.34 1.80766ZM46.8477 1.80969C47.0419 1.81208 47.1647 1.82866 47.2009 1.85851C47.2543 1.90272 47.2749 2.05176 47.2749 2.38703C47.2749 2.64383 47.2602 2.89235 47.2419 2.93951C47.2141 3.01209 47.1264 3.02296 46.6714 3.01025L46.1339 2.99532V1.82774L46.6301 1.81245C46.7103 1.81006 46.7828 1.80913 46.8475 1.80987L46.8477 1.80969ZM46.6826 3.07216C46.9225 3.06976 47.164 3.09113 47.2112 3.13847C47.2989 3.22616 47.2976 4.14543 47.2095 4.23348C47.1646 4.27843 46.9864 4.29427 46.639 4.28395L46.1338 4.26903L46.1185 3.74622C46.1086 3.40634 46.1248 3.19742 46.165 3.14917C46.2049 3.10109 46.4428 3.07494 46.6826 3.07254V3.07216ZM45.4353 3.07474C45.747 3.07474 45.9502 3.09813 45.9905 3.13848C46.0307 3.17864 46.0543 3.38017 46.0543 3.68506C46.0543 3.98994 46.0309 4.19146 45.9905 4.23164C45.9502 4.27199 45.7468 4.29539 45.4353 4.29539C44.8456 4.29539 44.8336 4.28341 44.8336 3.68509C44.8336 3.08677 44.8456 3.07479 45.4353 3.07479V3.07474ZM47.9163 3.07474C48.326 3.07474 48.3926 3.08782 48.4406 3.17735C48.5125 3.31146 48.5115 4.05995 48.4395 4.19459C48.3889 4.28927 48.3353 4.29775 47.869 4.28393L47.3545 4.26883L47.3392 3.74601C47.3292 3.40613 47.3454 3.19721 47.3856 3.14897C47.4298 3.09573 47.5792 3.07491 47.9163 3.07491L47.9163 3.07474ZM49.1438 3.07547C49.5472 3.07474 49.6133 3.08782 49.6613 3.17735C49.7331 3.31146 49.7324 4.05995 49.6603 4.19459C49.6097 4.28927 49.5561 4.29775 49.0898 4.28393L48.5753 4.26883L48.5602 3.71597C48.5489 3.3094 48.5629 3.1517 48.6132 3.11982C48.6508 3.09606 48.8896 3.07616 49.144 3.07579L49.1438 3.07547ZM50.2998 3.07658C50.5158 3.07382 50.7376 3.08321 50.7996 3.10698C50.8685 3.1335 50.8836 3.23611 50.8836 3.6819C50.8836 3.98033 50.8668 4.24136 50.8463 4.26183C50.8259 4.28227 50.5811 4.29222 50.3024 4.28393L49.7956 4.26901L49.7805 3.71616C49.7692 3.30959 49.7832 3.15189 49.8335 3.12001C49.8731 3.09495 50.0835 3.07966 50.2998 3.0769L50.2998 3.07658ZM45.4352 4.34843C45.7469 4.34843 45.9501 4.37183 45.9904 4.41218C46.03 4.45178 46.0542 4.64797 46.0542 4.93221C46.0542 5.21644 46.0302 5.41267 45.9904 5.45224C45.9501 5.49258 45.7467 5.51598 45.4352 5.51598C44.8488 5.51598 44.8336 5.50124 44.8336 4.93219C44.8336 4.36313 44.8487 4.34843 45.4352 4.34843ZM48.1193 4.35507C48.3265 4.35636 48.3855 4.37754 48.4284 4.43612C48.5106 4.5485 48.5187 5.26732 48.4394 5.41526C48.3888 5.50994 48.3352 5.51842 47.8689 5.5046L47.3544 5.4895V4.37497L47.8579 4.35949C47.9647 4.35618 48.0502 4.35452 48.1193 4.35489L48.1193 4.35507ZM49.3399 4.35507C49.5472 4.35636 49.6061 4.37754 49.649 4.43612C49.7312 4.5485 49.7393 5.26732 49.6601 5.41526C49.6094 5.50994 49.5558 5.51842 49.0895 5.5046L48.575 5.4895V4.37497L49.0785 4.35949C49.1854 4.35618 49.2708 4.35452 49.3399 4.35489L49.3399 4.35507ZM51.3588 4.35525C51.417 4.3558 51.4833 4.35764 51.5592 4.35986L52.0776 4.37515L52.0931 4.87528C52.1015 5.15031 52.0962 5.4071 52.0815 5.44582C52.0617 5.4974 51.9193 5.51619 51.547 5.51619C50.9539 5.51619 50.9494 5.51177 50.9494 4.9324C50.9494 4.41859 50.952 4.35209 51.359 4.35544L51.3588 4.35525ZM46.8477 4.35709C47.0418 4.35949 47.1647 4.37607 47.2008 4.40591C47.297 4.48586 47.3058 5.35779 47.2113 5.4523C47.1385 5.52506 46.2812 5.54035 46.1718 5.4709C46.1217 5.43922 46.1075 5.2865 46.1187 4.9013L46.134 4.375L46.6303 4.35971C46.7104 4.35732 46.783 4.35636 46.8477 4.35709ZM49.7957 4.37496H50.8572L50.8727 4.87509C50.8811 5.15013 50.8756 5.40767 50.8603 5.44747C50.839 5.50311 50.7133 5.51618 50.3143 5.50458L49.7959 5.48947V4.93223L49.7957 4.37496ZM51.0418 5.56518L51.5596 5.58047L52.0776 5.59558L52.0929 6.12188C52.1041 6.50727 52.0899 6.65979 52.0398 6.69148C51.9455 6.75135 51.1403 6.74619 51.044 6.68522C50.945 6.62258 50.9027 5.92604 50.9848 5.71292L51.0418 5.56518ZM45.4354 5.56905C45.7471 5.56905 45.9503 5.59245 45.9906 5.63279C46.0302 5.6724 46.0544 5.86859 46.0544 6.15282C46.0544 6.43707 46.0304 6.63329 45.9906 6.67286C45.9503 6.7132 45.7469 6.7366 45.4354 6.7366C44.849 6.7366 44.8337 6.72186 44.8337 6.15281C44.8337 5.58377 44.8488 5.56905 45.4354 5.56905ZM48.1195 5.57568C48.3267 5.57697 48.3857 5.59816 48.4286 5.65674C48.5102 5.76838 48.5192 6.48756 48.4407 6.63403C48.3928 6.72356 48.3267 6.73665 47.9233 6.73591C47.6689 6.73536 47.4299 6.71565 47.3923 6.6917C47.3422 6.66001 47.328 6.50729 47.3393 6.1221L47.3546 5.5958L47.858 5.58032C47.9649 5.57701 48.0504 5.57531 48.1195 5.57568ZM49.3401 5.57568C49.5473 5.57697 49.6063 5.59816 49.6492 5.65674C49.729 5.7658 49.7395 6.40394 49.6647 6.6005C49.6146 6.73241 49.5986 6.73664 49.1472 6.73591C48.8911 6.73535 48.6508 6.71564 48.6132 6.69169C48.5631 6.66001 48.5489 6.50729 48.5601 6.1221L48.5754 5.59579L49.0789 5.58032C49.1857 5.577 49.2712 5.57534 49.3403 5.57571L49.3401 5.57568ZM46.8478 5.57771C47.042 5.5801 47.1648 5.59668 47.2009 5.62653C47.2971 5.70648 47.306 6.5784 47.2114 6.67291C47.1169 6.76742 46.245 6.75857 46.1653 6.66223C46.1255 6.61433 46.1091 6.41206 46.1188 6.09169L46.1341 5.59542L46.6304 5.58013C46.7105 5.57774 46.7831 5.57682 46.8478 5.57756L46.8478 5.57771ZM49.7959 5.59558H50.8573L50.8726 6.12188C50.8839 6.50727 50.8697 6.65979 50.8196 6.69148C50.782 6.71524 50.5602 6.73477 50.3266 6.73477C50.093 6.73477 49.8714 6.71524 49.8338 6.69148C49.7837 6.65979 49.7695 6.50708 49.7808 6.12188L49.7959 5.59558ZM49.3745 6.79556C49.5906 6.7963 49.6227 6.82025 49.6656 6.90038C49.755 7.06729 49.7119 7.8408 49.6096 7.90546C49.5127 7.9668 48.7077 7.97214 48.613 7.91209C48.5629 7.8804 48.5487 7.72768 48.5599 7.34249L48.5752 6.81619L49.0897 6.80108C49.2098 6.79758 49.3025 6.79538 49.3745 6.79556ZM51.2784 6.79556C51.3505 6.79538 51.4431 6.7974 51.5632 6.80109L52.0778 6.81619L52.093 7.3425C52.1043 7.72788 52.0901 7.8804 52.04 7.9121C51.9453 7.97215 51.1403 7.96681 51.0434 7.90546C50.9411 7.8408 50.898 7.06729 50.9875 6.90039C51.0305 6.82026 51.0623 6.79649 51.2784 6.79556ZM46.8478 6.79832C47.042 6.80072 47.1649 6.8173 47.201 6.84714C47.3117 6.93907 47.3043 7.76124 47.1918 7.87382C47.0792 7.98639 46.2572 7.99374 46.1653 7.88284C46.1255 7.83495 46.1091 7.63267 46.1188 7.3123L46.1341 6.81604L46.6304 6.80075C46.7105 6.79835 46.7831 6.79743 46.8478 6.79817L46.8478 6.79832ZM48.0685 6.79832C48.2626 6.80072 48.3855 6.8173 48.4216 6.84714C48.5323 6.93907 48.5249 7.76124 48.4124 7.87382C48.2998 7.98639 47.4779 7.99374 47.3859 7.88284C47.3461 7.83495 47.3297 7.63267 47.3395 7.3123L47.3548 6.81604L47.851 6.80075C47.9312 6.79835 48.0038 6.79743 48.0684 6.79817L48.0685 6.79832ZM49.7959 6.81619H50.8574L50.8726 7.3425C50.8839 7.72788 50.8697 7.8804 50.8196 7.9121C50.782 7.93586 50.5602 7.95539 50.3266 7.95539C50.093 7.95539 49.8714 7.93586 49.8338 7.9121C49.7837 7.88041 49.7696 7.72769 49.7808 7.3425L49.7959 6.81619ZM49.2793 8.01731C49.6898 8.0162 49.7137 8.09008 49.7262 8.53791L49.736 8.88608L49.766 8.46146L49.7959 8.03683H50.8574L50.8726 8.56314C50.8839 8.94852 50.8697 9.10104 50.8196 9.13273C50.7402 9.18303 49.9776 9.19316 49.8534 9.14545C49.8071 9.12776 49.7694 9.07544 49.7694 9.02939C49.7694 8.96344 49.7464 8.97026 49.6612 9.06163C49.5667 9.16313 49.4978 9.17768 49.1173 9.17695C48.8776 9.17639 48.6506 9.15668 48.6131 9.13273C48.563 9.10105 48.5488 8.94833 48.56 8.56314L48.5753 8.03683L49.0788 8.02136C49.1543 8.01896 49.2208 8.01731 49.2794 8.01712L49.2793 8.01731ZM48.0685 8.01897C48.2626 8.02136 48.3855 8.03794 48.4216 8.06779C48.5323 8.15971 48.5249 8.98189 48.4124 9.09446C48.3499 9.15691 48.2195 9.17772 47.8949 9.17699C47.6562 9.17643 47.4301 9.15672 47.3926 9.13277C47.3425 9.10109 47.3283 8.94837 47.3395 8.56318L47.3548 8.03687L47.8511 8.02158C47.9312 8.01919 48.0038 8.01823 48.0685 8.01897ZM56.5214 12.7175L55.6996 13.5411L56.4827 14.3262C56.7557 14.053 57.0289 13.7798 57.3023 13.5068L56.5214 12.7175ZM57.8281 13.8845L56.9337 14.8582L57.2314 15.2276H59.2399L57.8281 13.8845ZM59.9294 15.8644L57.889 15.9057L58.608 16.6606L60.6484 16.6194L59.9294 15.8644ZM59.192 17.2973L59.9293 18.0403H62.1051L61.3678 17.2973H59.192ZM62.7087 18.6771L60.6484 18.722C60.6484 18.7817 61.8095 19.8631 61.9584 19.9421C62.0221 19.976 62.0818 20.0018 62.091 19.9996C62.3953 19.9235 62.9834 19.3292 62.9834 19.0979C62.9767 18.9411 62.7951 18.8007 62.7085 18.6773L62.7087 18.6771Z" fill="#13013C"/>
<rect opacity="0.2" x="69" y="9" width="50" height="1.5" rx="0.75" fill="#13013C"/>
</svg>
