<svg width="84" height="70" viewBox="0 0 84 70" fill="none" xmlns="http://www.w3.org/2000/svg">
<path d="M67.4326 0.00102161C67.2998 -0.000912725 67.1664 0.000376886 67.0335 0.00102161C64.4731 0.0332594 61.8257 0.665123 59.2203 1.91654C55.155 3.86952 50.839 7.65038 48.1715 11.597C47.0961 13.1882 46.5036 14.3475 45.882 16.078C44.889 18.8434 44.7698 19.8808 44.7401 25.9918C44.7143 31.2544 44.6834 31.7605 44.2965 33.1178C43.3352 36.4924 42.1765 38.1301 37.1828 43.1793L33.1343 47.2723L36.0023 50.1402L39.9959 46.1368C42.1926 43.9349 44.533 41.7543 45.1972 41.2908C46.8704 40.1232 47.891 39.6293 49.7326 39.0954C51.9338 38.4577 54.4246 38.2475 57.6393 38.4287C65.3132 38.8613 70.0096 37.1437 75.3535 31.9501C79.251 28.1615 81.6173 24.3953 82.7663 20.1528C83.3046 18.1637 83.3382 14.0836 82.8314 12.2468C82.0151 9.2899 80.6217 6.87458 78.5057 4.75142C75.425 1.65986 71.5512 0.0492031 67.4325 0.000180393L67.4326 0.00102161ZM67.3927 1.94427C69.7576 1.94491 70.1277 1.99263 71.4792 2.46394C72.2968 2.74893 73.5502 3.32536 74.2653 3.74509C75.7689 4.62713 78.23 7.01475 79.2603 8.59173C83.3564 14.8589 81.5363 23.0318 74.451 30.1848C71.2414 33.4248 68.2535 35.1734 64.6609 35.9135C62.6055 36.3372 58.5524 36.2914 56.6478 35.8239C51.2789 34.5047 47.694 30.2345 47.0415 24.3827C46.5341 19.8306 47.8287 15.0936 50.5645 11.4925C52.8239 8.51878 57.103 5.01192 60.3004 3.51351C62.9664 2.26396 64.4185 1.94287 67.3928 1.9448L67.3927 1.94427ZM68.1645 3.61104L68.0574 4.81804L67.9498 6.02504L66.1882 6.0792C64.1714 6.14109 63.9779 6.02568 63.9258 4.73551C63.8987 4.06624 63.8832 4.09655 63.7865 5.00309L63.6775 6.0244L61.916 6.07855C60.3995 6.12498 60.1203 6.08565 59.9089 5.80002C59.6755 5.48408 59.6536 5.48408 59.4782 5.79292C59.377 5.97152 59.11 6.12626 58.885 6.13658C58.5078 6.15399 58.5123 6.16495 58.9404 6.28423C59.3995 6.41189 59.4047 6.43639 59.4047 8.44866V10.4835H55.6895L55.5818 9.36936C55.4877 8.39706 55.4696 8.35708 55.4426 9.05665C55.3929 10.3333 55.1789 10.5725 54.0583 10.6028L53.0898 10.6286L54.0537 10.7459C54.5837 10.8104 55.0712 10.9168 55.1363 10.9819C55.3652 11.2108 55.4413 14.2605 55.2279 14.659C55.0357 15.0181 54.8842 15.0432 53.2194 14.9942L51.4186 14.9414L51.3071 14.1057C51.2349 13.5648 51.1859 13.4545 51.1678 13.793C51.1298 14.5023 50.8222 15.0316 50.4373 15.049C50.1826 15.0606 50.1742 15.0839 50.3973 15.1632C50.9641 15.3656 51.1401 15.8531 51.1401 17.218C51.1401 19.1013 51.006 19.2981 49.6945 19.3405L48.6326 19.3753L49.6539 19.4411C50.9718 19.5262 51.1401 19.7583 51.1401 21.4901C51.1401 23.4263 51.0292 23.5707 49.5082 23.6139L48.2606 23.6494L49.4676 23.7132C50.318 23.7584 50.7435 23.868 50.9073 24.0846C51.1743 24.4386 51.2233 27.059 50.9705 27.4586C50.8802 27.6005 50.485 27.7791 50.0911 27.8551L49.3754 27.9938L50.0653 28.015C50.9222 28.0415 51.1278 28.38 51.173 29.8351C51.2059 30.8996 51.2078 30.8951 51.3122 29.5224L51.418 28.1291L53.2188 28.0762C54.9009 28.0266 55.0338 28.0498 55.2343 28.4238C55.4722 28.868 55.4155 31.6231 55.1634 31.8758C55.0789 31.9603 54.4522 32.0796 53.7707 32.1402L52.5321 32.2504L53.7797 32.2794C55.1131 32.3104 55.3794 32.5 55.4381 33.4574C55.4529 33.6941 55.5155 33.5535 55.5774 33.1447L55.6902 32.402H59.4054L59.4866 33.609C59.5388 34.3846 59.5891 34.5838 59.6278 34.166C59.6607 33.8082 59.7335 33.2414 59.7883 32.9062L59.8889 32.2962L63.6775 32.402L63.7852 33.5161C63.889 34.5871 63.8948 34.5961 63.9245 33.7631C63.9774 32.2911 63.9522 32.3085 66.0252 32.3085C67.7634 32.3085 67.8777 32.3323 68.0221 32.723L68.1755 33.1383L68.3071 32.723C68.3793 32.4948 68.5798 32.3039 68.7513 32.2982C69.0028 32.2911 68.9821 32.2311 68.6462 31.997C68.2671 31.7327 68.2284 31.5567 68.231 30.1033C68.2323 29.2219 68.3019 28.3928 68.3857 28.2613C68.4966 28.0859 69.0312 28.0362 70.3793 28.0756L72.2214 28.1291L72.3291 29.2432C72.4329 30.3142 72.4387 30.3239 72.4683 29.4902C72.5173 28.1233 72.5908 28.0395 73.7733 28.0021L74.8217 27.9685L73.8978 27.897C73.3897 27.8576 72.8674 27.7371 72.7372 27.6294C72.4903 27.4244 72.3929 24.6306 72.6128 24.0573C72.705 23.8175 73.057 23.7633 74.5407 23.7633C76.4652 23.7633 76.6665 23.8452 76.8218 24.6918C76.8933 25.0806 76.9114 25.0567 76.9327 24.5467C76.9482 24.1702 77.0745 23.8923 77.2628 23.8201C77.5439 23.7124 77.5433 23.6853 77.2557 23.4751C76.9933 23.2836 76.9527 22.9561 76.9972 21.4157L77.0507 19.5839L79.279 19.3788L77.0507 19.2125V15.3116L79.6517 15.144L77.0507 14.9402L76.9978 13.0052C76.9398 10.9001 76.9875 10.7898 77.9798 10.7377C78.4556 10.7125 78.4285 10.6919 77.7941 10.5952L77.0513 10.4823L76.8385 7.88132L76.8057 9.00515C76.7876 9.62348 76.6728 10.2289 76.5497 10.3521C76.4072 10.4946 75.6793 10.5752 74.5264 10.5752C73.0563 10.5752 72.7056 10.521 72.6133 10.2812C72.4032 9.73375 72.4902 6.75879 72.7236 6.52605C72.8461 6.40355 73.4522 6.28749 74.0705 6.26815L75.1943 6.23333L74.086 6.16498C72.8223 6.08697 72.5108 5.90257 72.4767 5.21267C72.4567 4.81485 72.4309 4.84515 72.3374 5.37516L72.2226 6.02508L70.4857 6.07859C69.3645 6.11341 68.6565 6.05538 68.4888 5.91611C68.3309 5.78523 68.2161 5.2894 68.1967 4.65496L68.1645 3.6098L68.1645 3.61104ZM61.0012 6.32742C61.243 6.32549 61.5422 6.33194 61.9161 6.34354L63.6776 6.3977V10.4842L61.8768 10.5371C60.245 10.5855 60.0574 10.5558 59.88 10.2244C59.6014 9.70345 59.6304 7.00641 59.9193 6.61109C60.0689 6.40606 60.2759 6.33259 61.0012 6.32742ZM65.2734 6.32742C65.5152 6.32549 65.8144 6.33194 66.1884 6.34354L67.9499 6.3977V10.4842L66.1819 10.5365C64.9659 10.5726 64.343 10.5178 64.185 10.3598C63.8717 10.0465 63.8762 7.04178 64.1908 6.61114C64.3404 6.40611 64.5474 6.33261 65.2728 6.32744L65.2734 6.32742ZM69.7243 6.33452C69.9506 6.33194 70.2053 6.33452 70.4857 6.34354L72.2227 6.39706V10.4836L70.3413 10.5358C68.7488 10.5803 68.4418 10.5423 68.3444 10.2882C68.2812 10.1232 68.229 9.25276 68.229 8.35457C68.229 7.18109 68.3019 6.66007 68.4889 6.50475C68.6146 6.40029 69.0446 6.34162 69.7242 6.33388L69.7243 6.33452ZM70.302 10.7532C71.1415 10.7615 71.9739 10.8531 72.1138 11.0214C72.2538 11.1903 72.3105 11.9215 72.2763 13.111L72.2228 14.9409L70.4549 14.9931C69.2388 15.0292 68.6159 14.9744 68.458 14.8165C68.1498 14.5083 68.1446 11.2916 68.4522 10.9839C68.6172 10.8189 69.4631 10.7434 70.3026 10.7518L70.302 10.7532ZM65.9834 10.7622C67.1633 10.7622 67.6861 10.835 67.8409 11.0214C67.9809 11.1903 68.0376 11.9215 68.0034 13.111L67.9499 14.9409L66.1491 14.9938C64.5172 15.0421 64.3297 15.0125 64.1522 14.6811C63.9001 14.2097 63.8975 11.59 64.1483 11.1207C64.316 10.8074 64.5494 10.7616 65.9833 10.7616L65.9834 10.7622ZM74.667 10.7622C76.7309 10.7622 76.7728 10.8041 76.7728 12.8982C76.7728 14.9923 76.7309 15.0343 74.667 15.0343C73.576 15.0343 72.8649 14.9524 72.7237 14.8112C72.5832 14.6706 72.5006 13.9652 72.5006 12.8981C72.5006 11.831 72.5825 11.1257 72.7237 10.9851C72.8649 10.8439 73.5768 10.762 74.667 10.762V10.7622ZM61.6872 10.7648C62.5776 10.7667 63.4132 10.8357 63.5448 10.9189C63.7208 11.0304 63.7698 11.5823 63.7305 13.0054L63.6776 14.9404L61.8768 14.9932C60.2449 15.0416 60.0573 15.0119 59.8799 14.6805C59.6278 14.2092 59.6252 11.5895 59.876 11.1202C60.0437 10.8069 60.2752 10.7611 61.6872 10.7636L61.6872 10.7648ZM57.6413 10.7686C58.3976 10.7783 59.1345 10.8312 59.2731 10.9195C59.4492 11.0311 59.4982 11.583 59.4588 13.006L59.406 14.941L57.6322 14.9932C56.6567 15.0223 55.7997 14.9874 55.7283 14.9159C55.6567 14.8443 55.598 13.9313 55.598 12.8861C55.598 11.3252 55.6503 10.9667 55.892 10.8739C56.1093 10.7907 56.885 10.7578 57.6413 10.7675L57.6413 10.7686ZM74.6671 15.2201C76.7195 15.2201 76.773 15.2717 76.773 17.2634C76.773 19.2551 76.7201 19.3067 74.6671 19.3067C73.5762 19.3067 72.865 19.2248 72.7239 19.0836C72.5853 18.945 72.5008 18.2583 72.5008 17.2635C72.5008 16.2687 72.5846 15.5818 72.7239 15.4434C72.8651 15.3022 73.5769 15.2201 74.6671 15.2201ZM61.0014 15.2433C61.2431 15.2414 61.5423 15.2479 61.9163 15.2595L63.6778 15.3136V19.2145L61.877 19.2673C60.2451 19.3157 60.0576 19.286 59.8801 18.9546C59.6029 18.4362 59.6312 15.921 59.9195 15.5277C60.069 15.3226 60.276 15.2491 61.0014 15.244V15.2433ZM65.2736 15.2433C65.5154 15.2414 65.8146 15.2479 66.1885 15.2595L67.95 15.3136V19.2145L66.1492 19.2673C64.5173 19.3157 64.3298 19.286 64.1524 18.9546C63.8751 18.4362 63.9035 15.921 64.1917 15.5277C64.3413 15.3226 64.5482 15.2491 65.2736 15.244V15.2433ZM53.9355 15.244C55.3604 15.2324 55.3688 15.4651 55.3688 17.2633C55.3688 19.2911 55.3527 19.3066 53.2772 19.3066C51.9741 19.3066 51.4757 19.2408 51.4067 19.0603C51.3545 18.9249 51.3364 18.0261 51.3661 17.0634L51.4203 15.3129L53.2346 15.2594C53.5002 15.2523 53.7323 15.2452 53.9361 15.2433L53.9355 15.244ZM69.7244 15.2504C69.9508 15.2479 70.2054 15.2504 70.4859 15.2595L72.2228 15.313L72.2763 17.155C72.3157 18.5039 72.266 19.0377 72.0907 19.1486C71.7077 19.3917 68.7069 19.3375 68.4522 19.0835C68.1215 18.7527 68.1524 15.7011 68.489 15.4212C68.6147 15.3167 69.0449 15.2582 69.7244 15.2504ZM55.6917 15.313H59.4069V19.2138L57.5926 19.2667C56.196 19.308 55.7556 19.2622 55.6815 19.0668C55.628 18.9276 55.6086 18.0262 55.6383 17.0635L55.6925 15.313L55.6917 15.313ZM55.0457 19.4787L55.2449 19.9965C55.5325 20.7425 55.3835 23.1803 55.0373 23.3995C54.6994 23.6129 51.8812 23.6303 51.5517 23.4214C51.3763 23.3105 51.3267 22.776 51.366 21.4279L51.4195 19.5858L53.2326 19.5329L55.0456 19.4794L55.0457 19.4787ZM74.668 19.4923C76.7203 19.4923 76.7738 19.5439 76.7738 21.5356C76.7738 23.5272 76.7209 23.5788 74.668 23.5788C73.577 23.5788 72.8658 23.4969 72.7247 23.3557C72.5861 23.2171 72.5016 22.5304 72.5016 21.5356C72.5016 20.5408 72.5854 19.854 72.7247 19.7155C72.8659 19.5743 73.5777 19.4923 74.668 19.4923ZM61.0022 19.5155C61.244 19.5136 61.5431 19.52 61.9171 19.5316L63.6786 19.5858L63.7321 21.4278C63.7715 22.7767 63.7218 23.3105 63.5464 23.4214C63.4149 23.5046 62.5741 23.5742 61.6773 23.5762C60.0976 23.5788 60.0422 23.5646 59.8661 23.1023C59.6043 22.4137 59.6411 20.1809 59.9203 19.7991C60.0699 19.5941 60.2768 19.5207 61.0022 19.5155ZM65.2744 19.5155C65.5162 19.5136 65.8154 19.52 66.1893 19.5316L67.9509 19.5858L68.0044 21.4278C68.0437 22.7767 67.9941 23.3105 67.8187 23.4214C67.6871 23.5046 66.8509 23.5742 65.9604 23.5762C64.5484 23.5788 64.3169 23.533 64.1492 23.2196C63.8746 22.7064 63.9062 20.1899 64.1924 19.7991C64.342 19.594 64.5491 19.5207 65.2744 19.5155ZM69.7252 19.5226C69.9516 19.52 70.2063 19.5226 70.4867 19.5316L72.2236 19.5851L72.2772 21.3221C72.312 22.4433 72.2539 23.1512 72.1147 23.3189C71.8348 23.6555 68.7831 23.6871 68.4523 23.3563C68.1216 23.0256 68.1525 19.9739 68.4891 19.694C68.6148 19.5895 69.0449 19.5309 69.7245 19.5231L69.7252 19.5226ZM55.6925 19.5851H59.4077L59.4612 21.4272C59.5005 22.776 59.4509 23.3099 59.2755 23.4208C59.144 23.504 58.3677 23.5723 57.5502 23.5723C56.7326 23.5723 55.9563 23.504 55.8248 23.4208C55.6494 23.3099 55.5998 22.7754 55.6391 21.4272L55.6925 19.5851ZM54.218 23.7851C54.9743 23.7877 55.0865 23.8708 55.2367 24.152C55.5494 24.7361 55.3985 27.4434 55.0407 27.6697C54.7015 27.8844 51.8839 27.9031 51.5525 27.6929C51.3771 27.582 51.3275 27.0475 51.3668 25.6993L51.4203 23.8573L53.2211 23.8044C53.6415 23.7921 53.9659 23.7844 54.218 23.7851ZM60.8822 23.7851C61.1343 23.7844 61.458 23.7915 61.8791 23.8044L63.6799 23.8573L63.7334 25.6994C63.7727 27.0482 63.7231 27.582 63.5477 27.6929C63.2163 27.9031 60.3993 27.8844 60.0595 27.6697C59.7016 27.4434 59.5508 24.7361 59.8635 24.152C60.0137 23.8715 60.1259 23.7883 60.8822 23.7851ZM65.4536 23.7947C65.6799 23.7922 65.9346 23.7947 66.215 23.8038L67.952 23.8573L68.0055 25.5942C68.0403 26.7155 67.9823 27.4234 67.843 27.5911C67.5213 27.9786 64.6443 27.9535 64.2503 27.5595C63.8564 27.1656 63.8306 24.288 64.2181 23.9662C64.3438 23.8617 64.7739 23.803 65.4534 23.7953L65.4536 23.7947ZM69.7258 23.7947C69.9521 23.7922 70.2068 23.7947 70.4873 23.8038L72.2242 23.8573L72.2777 25.5942C72.3125 26.7155 72.2545 27.4234 72.1152 27.5911C71.7935 27.9786 68.9165 27.9535 68.5225 27.5595C68.1286 27.1656 68.1028 24.288 68.4903 23.9662C68.616 23.8617 69.0461 23.803 69.7257 23.7953L69.7258 23.7947ZM55.6931 23.8573H59.4083L59.4618 25.6994C59.5011 27.0482 59.4515 27.582 59.2761 27.6929C59.1446 27.7761 58.3683 27.8445 57.5507 27.8445C56.7332 27.8445 55.9569 27.7761 55.8254 27.6929C55.65 27.582 55.6003 27.0475 55.6397 25.6994L55.6931 23.8573ZM61.2162 28.0605C61.4212 28.0612 61.6539 28.067 61.9183 28.0754L63.6798 28.1295L63.7333 29.9716C63.7727 31.3204 63.723 31.8543 63.5477 31.9652C63.4161 32.0483 62.6224 32.118 61.7835 32.1199C60.4514 32.1225 60.2103 32.0709 59.8795 31.7163C59.5816 31.3965 59.501 31.3726 59.501 31.6035C59.501 31.7653 59.3689 31.9478 59.207 32.0097C58.7725 32.1766 56.1024 32.1412 55.8253 31.9652C55.6499 31.8543 55.6003 31.3198 55.6396 29.9716L55.6931 28.1295H59.4083L59.6185 31.1019L59.6526 29.8833C59.6965 28.3165 59.7803 28.0579 61.2169 28.0612L61.2162 28.0605ZM65.4536 28.0663C65.6799 28.0638 65.9346 28.0663 66.215 28.0754L67.952 28.1289L68.0055 29.9709C68.0448 31.3198 67.9952 31.8536 67.8198 31.9645C67.6883 32.0477 66.8971 32.1173 66.0616 32.1193C64.9255 32.1212 64.469 32.0483 64.2504 31.8304C63.8564 31.4365 63.8306 28.5589 64.2181 28.2371C64.3439 28.1326 64.774 28.0741 65.4536 28.0663ZM31.2945 48.5964L26.3529 53.2973H33.3828L34.4248 52.0046L31.2945 48.5964ZM23.9396 55.5263L21.4231 58.1686L28.5646 58.313L31.0811 55.6714L23.9396 55.527V55.5263ZM18.9053 60.5413L16.3249 63.1417H23.9403L26.5206 60.5413H18.9053ZM14.212 65.3706C13.9096 65.8026 13.2732 66.2939 13.25 66.8426C13.25 67.6531 15.3081 69.7325 16.3733 69.9994C16.4055 70.0084 16.6144 69.9169 16.8375 69.7982C17.3584 69.5216 21.4223 65.7363 21.4223 65.528L14.2112 65.3706L14.212 65.3706Z" fill="#3B4650"/>
<path d="M15.7584 0.000476048C11.6397 0.0494789 7.76657 1.66015 4.68589 4.75172C2.57049 6.87488 1.1764 9.29019 0.360178 12.2471C-0.146604 14.084 -0.113081 18.1648 0.425944 20.1531C1.57491 24.3963 3.94122 28.1618 7.83877 31.9504C13.1819 37.144 17.8784 38.8623 25.553 38.4296C28.7678 38.2485 31.2584 38.458 33.4596 39.0963C34.1205 39.2878 34.6744 39.4755 35.1915 39.6895L39.6372 35.2342C39.3502 34.5785 39.1162 33.8951 38.895 33.1182C38.5082 31.7609 38.4772 31.2548 38.4514 25.9922C38.4218 19.8812 38.3025 18.8443 37.3096 16.0784C36.6887 14.3479 36.0955 13.1879 35.02 11.5974C32.352 7.65081 28.0365 3.86995 23.9713 1.91697C21.3665 0.665485 18.7184 0.0336374 16.158 0.00145075C16.0245 -0.000483583 15.8917 -0.000483583 15.7589 0.00145075L15.7584 0.000476048ZM15.7984 1.94372C18.7728 1.94179 20.2246 2.26353 22.8908 3.51243C26.0882 5.01086 30.3675 8.5177 32.6267 11.4914C35.3624 15.0917 36.6578 19.8296 36.1497 24.3816C35.4973 30.2341 31.9117 34.5043 26.5428 35.8228C24.6382 36.2909 20.5851 36.3361 18.5296 35.9125C14.937 35.1723 11.9485 33.4237 8.73962 30.1837C1.65494 23.0307 -0.165174 14.8583 3.93094 8.59065C4.96128 7.01356 7.42162 4.62658 8.92598 3.74401C9.64101 3.32426 10.8951 2.74784 11.712 2.46286C13.0634 1.99154 13.4336 1.94448 15.7986 1.94319L15.7984 1.94372ZM15.0266 3.61307L14.9944 4.65565C14.975 5.29011 14.8603 5.78593 14.7023 5.91681C14.5347 6.05608 13.8267 6.11346 12.7054 6.07929L10.9685 6.02577L10.8537 5.37585C10.7602 4.84651 10.7344 4.8162 10.7145 5.21337C10.6796 5.90391 10.3688 6.08832 9.10512 6.16568L7.99678 6.23403L9.1206 6.26885C9.73893 6.28819 10.3444 6.40425 10.4675 6.52675C10.7003 6.75952 10.788 9.73452 10.5778 10.2819C10.4856 10.5217 10.1348 10.5759 8.66474 10.5759C7.51189 10.5759 6.78454 10.4959 6.64144 10.3528C6.51893 10.2303 6.40352 9.62418 6.38546 9.00585L6.35258 7.88202L6.1398 10.483L5.39703 10.5959C4.76258 10.6926 4.73551 10.7132 5.21134 10.7384C6.20363 10.7906 6.25135 10.9008 6.19331 13.0059L6.14044 14.9409L3.53943 15.1447L6.14044 15.3123V19.2132L3.91214 19.3795L6.14044 19.5846L6.19396 21.4164C6.23909 22.9574 6.19783 23.2842 5.93541 23.4758C5.64784 23.686 5.64784 23.7131 5.92832 23.8208C6.11658 23.893 6.24295 24.1709 6.25844 24.5474C6.27971 25.0574 6.29777 25.0813 6.36934 24.6925C6.52472 23.8459 6.72654 23.764 8.65046 23.764C10.1341 23.764 10.4854 23.8175 10.5777 24.058C10.7976 24.6312 10.7002 27.4249 10.4533 27.6301C10.323 27.7384 9.80076 27.859 9.29269 27.8977L8.36873 27.9692L9.41713 28.0028C10.5996 28.0408 10.6731 28.124 10.7221 29.4909C10.7524 30.3239 10.7576 30.3142 10.8614 29.2433L10.9691 28.1291L12.8111 28.0756C14.16 28.0363 14.6938 28.0859 14.8047 28.2613C14.8879 28.3928 14.9582 29.222 14.9595 30.1034C14.962 31.5567 14.9234 31.7327 14.5442 31.9971C14.2083 32.2318 14.1877 32.2905 14.4391 32.2982C14.6113 32.304 14.8105 32.4949 14.8834 32.7231L15.0149 33.1383L15.1684 32.7231C15.3128 32.3317 15.4269 32.3085 17.1653 32.3085C19.2376 32.3085 19.213 32.2911 19.266 33.7631C19.2963 34.5961 19.3014 34.5865 19.4052 33.5162L19.5129 32.4014L23.3015 32.2956L23.4028 32.9056C23.4582 33.2408 23.5304 33.8082 23.5633 34.1654C23.602 34.5832 23.6523 34.384 23.7045 33.6084L23.7857 32.4014H27.5009L27.6144 33.1441C27.6763 33.5529 27.7388 33.6935 27.7537 33.4568C27.8123 32.4994 28.0786 32.3098 29.412 32.2789L30.659 32.2498L29.4204 32.1396C28.7389 32.079 28.1122 31.9603 28.0277 31.8752C27.7756 31.6225 27.7189 28.8673 27.9568 28.4232C28.1573 28.0486 28.2901 28.026 29.973 28.0756L31.7738 28.1285L31.8802 29.5218C31.9846 30.8945 31.9866 30.8991 32.0194 29.8345C32.0646 28.3793 32.2702 28.0408 33.1271 28.0144L33.817 27.9932L33.1014 27.8545C32.7074 27.7785 32.3122 27.5998 32.2225 27.458C31.9698 27.0583 32.0182 24.4379 32.2851 24.084C32.4489 23.8674 32.8744 23.7578 33.7249 23.7126L34.9318 23.6488L33.6849 23.6134C32.1639 23.5695 32.053 23.4251 32.053 21.4895C32.053 19.7577 32.2213 19.5257 33.5392 19.4405L34.5605 19.3747L33.4992 19.3399C32.1871 19.2973 32.053 19.1007 32.053 17.2174C32.053 15.8524 32.229 15.3649 32.7958 15.1626C33.0188 15.0826 33.0111 15.0601 32.7558 15.0484C32.3709 15.0304 32.0627 14.5017 32.0246 13.7924C32.0066 13.4539 31.9576 13.5642 31.8853 14.1051L31.7738 14.9408L29.973 14.9936C28.3082 15.0426 28.1567 15.0175 27.9646 14.6584C27.7511 14.2599 27.8266 11.2101 28.0555 10.9813C28.1206 10.9162 28.608 10.8098 29.138 10.7453L30.1013 10.628L29.1329 10.6016C28.0123 10.5713 27.7982 10.3321 27.7485 9.05542C27.7215 8.35649 27.7034 8.39647 27.6093 9.36812L27.501 10.4823H23.7858V8.44742C23.7858 6.43518 23.791 6.41124 24.25 6.28299C24.6788 6.16371 24.6833 6.15275 24.3055 6.13534C24.0805 6.12503 23.8142 5.97028 23.713 5.79169C23.5382 5.48285 23.5163 5.48349 23.2822 5.79878C23.0708 6.08506 22.7909 6.12375 21.2745 6.07732L19.5129 6.02316L19.404 5.00185C19.3073 4.09467 19.2918 4.06437 19.2647 4.73428C19.2131 6.02445 19.0191 6.13921 17.0022 6.07796L15.2407 6.0238L15.133 4.8168L15.0266 3.61307ZM17.9178 6.32682C18.6431 6.33133 18.8495 6.40548 18.9997 6.61052C19.3143 7.04123 19.3195 10.0457 19.0055 10.3592C18.8482 10.5165 18.2247 10.572 17.0086 10.5359L15.2407 10.4836V6.39708L17.0028 6.34292C17.3768 6.33132 17.676 6.32553 17.9178 6.32682ZM22.19 6.32682C22.9154 6.33133 23.1217 6.40548 23.272 6.61052C23.5608 7.00511 23.5898 9.70275 23.3106 10.2238C23.1333 10.5552 22.9457 10.5849 21.3137 10.5365L19.5129 10.4837V6.39713L21.2751 6.34297C21.6491 6.33137 21.9482 6.32553 22.19 6.32682ZM13.467 6.33391C14.1465 6.34229 14.5766 6.40032 14.703 6.50478C14.89 6.65952 14.9622 7.18114 14.9622 8.3546C14.9622 9.2534 14.9106 10.1232 14.8468 10.2883C14.7494 10.5423 14.4425 10.5803 12.8499 10.5359L10.9685 10.4836V6.39709L12.7054 6.34358C12.9859 6.3352 13.24 6.33197 13.4663 6.33455L13.467 6.33391ZM12.8893 10.7526C13.7287 10.7442 14.574 10.819 14.7391 10.9847C15.046 11.2916 15.0415 14.509 14.7333 14.8172C14.576 14.9745 13.9525 15.03 12.7364 14.9938L10.9684 14.9416L10.9149 13.1118C10.8801 11.9222 10.9368 11.191 11.0774 11.0221C11.2173 10.8538 12.0497 10.7623 12.8893 10.7539V10.7526ZM8.5236 10.7616C9.61454 10.7616 10.3257 10.8435 10.4668 10.9847C10.6074 11.1252 10.6899 11.8306 10.6899 12.8977C10.6899 13.9648 10.6081 14.6701 10.4668 14.8108C10.3256 14.952 9.61381 15.0339 8.5236 15.0339C6.45969 15.0339 6.41776 14.9919 6.41776 12.8978C6.41776 10.8037 6.45968 10.7618 8.5236 10.7618V10.7616ZM17.2072 10.7616C18.6412 10.7616 18.874 10.8074 19.0422 11.1207C19.2936 11.5901 19.2904 14.2098 19.0383 14.6811C18.861 15.0125 18.6734 15.0421 17.0414 14.9938L15.2406 14.9409L15.1871 13.111C15.1523 11.9215 15.209 11.1902 15.3496 11.0214C15.5043 10.835 16.0272 10.7622 17.2072 10.7622L17.2072 10.7616ZM21.5032 10.7642C22.9153 10.7616 23.1467 10.8074 23.3144 11.1207C23.5659 11.5901 23.5633 14.2098 23.3112 14.6811C23.1339 15.0125 22.9463 15.0421 21.3143 14.9938L19.5135 14.9409L19.4606 13.0059C19.4213 11.5829 19.4703 11.031 19.6463 10.9194C19.7779 10.8362 20.6135 10.7666 21.5039 10.7653L21.5032 10.7642ZM25.5492 10.768C26.3055 10.7584 27.0818 10.7912 27.2985 10.8744C27.5396 10.9673 27.5925 11.3264 27.5925 12.8867C27.5925 13.9312 27.5338 14.8448 27.4622 14.9164C27.3907 14.988 26.5338 15.0228 25.5583 14.9938L23.7845 14.9415L23.7317 13.0065C23.6923 11.5835 23.7413 11.0316 23.9174 10.92C24.056 10.8323 24.7923 10.7788 25.5492 10.7692L25.5492 10.768ZM8.52326 15.2195C9.61421 15.2195 10.3254 15.3014 10.4665 15.4426C10.6051 15.5812 10.6896 16.2679 10.6896 17.2627C10.6896 18.2575 10.6058 18.9444 10.4665 19.0828C10.3253 19.224 9.61348 19.3059 8.52326 19.3059C6.47091 19.3059 6.41743 19.2543 6.41743 17.2627C6.41743 15.271 6.4703 15.2195 8.52326 15.2195ZM17.9175 15.2427C18.6428 15.2472 18.8491 15.3214 18.9994 15.5264C19.2869 15.9197 19.3153 18.4356 19.0381 18.9534C18.8608 19.2848 18.6731 19.3145 17.0412 19.2661L15.2404 19.2132V15.3124L17.0026 15.2582C17.3765 15.2466 17.6757 15.2408 17.9175 15.2421L17.9175 15.2427ZM22.1897 15.2427C22.9151 15.2472 23.1214 15.3214 23.2716 15.5264C23.5592 15.9197 23.5876 18.4356 23.3103 18.9534C23.133 19.2848 22.9454 19.3145 21.3134 19.2661L19.5126 19.2132V15.3124L21.2748 15.2582C21.6487 15.2466 21.9479 15.2408 22.1897 15.2421L22.1897 15.2427ZM29.2557 15.2434C29.4595 15.2453 29.6916 15.2518 29.9572 15.2595L31.7716 15.313L31.8257 17.0635C31.8554 18.0261 31.8367 18.9248 31.7851 19.0604C31.7161 19.2409 31.2177 19.3067 29.9147 19.3067C27.8385 19.3067 27.823 19.2912 27.823 17.2634C27.823 15.4651 27.8321 15.2323 29.2563 15.244L29.2557 15.2434ZM13.4668 15.2498C14.1464 15.2582 14.5764 15.3162 14.7028 15.4207C15.0394 15.7005 15.0703 18.7523 14.7396 19.083C14.4849 19.3377 11.4841 19.3912 11.1012 19.1482C10.9258 19.0373 10.8761 18.5027 10.9155 17.1546L10.969 15.3125L12.7059 15.259C12.9864 15.2506 13.2405 15.2472 13.4668 15.2498ZM23.785 15.3124H27.5002L27.5543 17.0628C27.584 18.0254 27.5646 18.9268 27.5111 19.0661C27.4363 19.2609 26.9966 19.3066 25.6001 19.266L23.7857 19.2131V17.2628L23.785 15.3124ZM28.1462 19.4781L29.9586 19.5317L31.7716 19.5845L31.8251 21.4266C31.8644 22.7754 31.8148 23.3093 31.6394 23.4202C31.3093 23.6297 28.4911 23.6117 28.1538 23.3983C27.8076 23.179 27.6593 20.7411 27.9469 19.9952L28.1462 19.4781ZM8.52393 19.4917C9.61487 19.4917 10.326 19.5736 10.4672 19.7148C10.6058 19.8534 10.6903 20.5401 10.6903 21.5349C10.6903 22.5297 10.6064 23.2165 10.4672 23.355C10.326 23.4962 9.61414 23.5781 8.52393 23.5781C6.47157 23.5781 6.41809 23.5265 6.41809 21.5348C6.41809 19.5432 6.47097 19.4917 8.52393 19.4917ZM17.9181 19.5149C18.6435 19.5194 18.8498 19.5935 19 19.7986C19.2857 20.1893 19.3173 22.7064 19.0426 23.2191C18.875 23.5325 18.6435 23.5783 17.2314 23.5757C16.341 23.5737 15.5047 23.5048 15.3732 23.4209C15.1978 23.31 15.1481 22.7755 15.1875 21.4273L15.241 19.5853L17.0032 19.5311C17.3771 19.5195 17.6763 19.5136 17.9181 19.5149ZM22.1904 19.5149C22.9157 19.5194 23.122 19.5935 23.2723 19.7986C23.5515 20.1803 23.5882 22.4138 23.3264 23.1018C23.1511 23.5634 23.095 23.5782 21.5152 23.5757C20.619 23.5737 19.7777 23.5047 19.6461 23.4209C19.4707 23.31 19.4211 22.7755 19.4604 21.4273L19.5139 19.5853L21.2761 19.5311C21.6501 19.5195 21.9492 19.5137 22.191 19.515L22.1904 19.5149ZM13.4673 19.522C14.1469 19.5304 14.5769 19.5884 14.7033 19.6929C15.0399 19.9727 15.0708 23.0244 14.7401 23.3552C14.4093 23.686 11.3577 23.655 11.0784 23.3178C10.9391 23.1502 10.8817 22.4422 10.9159 21.3209L10.9694 19.584L12.7063 19.5305C12.9868 19.5221 13.2408 19.5189 13.4672 19.5214L13.4673 19.522ZM23.7855 19.5845H27.5007L27.5542 21.4266C27.5935 22.7754 27.5439 23.3093 27.3685 23.4202C27.237 23.5034 26.4607 23.5717 25.6431 23.5717C24.8256 23.5717 24.0499 23.5034 23.9184 23.4202C23.743 23.3093 23.6934 22.7748 23.7327 21.4266L23.7855 19.5845ZM22.3109 23.7845C23.0672 23.787 23.1794 23.8709 23.3297 24.1513C23.6424 24.7355 23.4915 27.4428 23.1336 27.6691C22.7945 27.8838 19.9769 27.9025 19.6454 27.6923C19.4701 27.5814 19.4204 27.0469 19.4598 25.6987L19.5133 23.8566L21.3141 23.8038C21.7345 23.7915 22.0588 23.7838 22.3109 23.7845ZM28.9745 23.7845C29.2266 23.7838 29.551 23.7909 29.9714 23.8038L31.7722 23.8567L31.8257 25.6987C31.865 27.0476 31.8154 27.5814 31.64 27.6923C31.3086 27.9025 28.491 27.8838 28.1518 27.6691C27.7939 27.4428 27.6431 24.7355 27.9564 24.1514C28.1066 23.8709 28.2182 23.7877 28.9745 23.7845ZM13.4674 23.7941C14.1469 23.8025 14.577 23.8605 14.7034 23.965C15.0909 24.2867 15.0651 27.1644 14.6711 27.5584C14.2772 27.9523 11.4003 27.9781 11.0785 27.5899C10.9392 27.4223 10.8818 26.7144 10.916 25.5931L10.9695 23.8561L12.7064 23.8026C12.9869 23.7942 13.2409 23.791 13.4672 23.7936L13.4674 23.7941ZM17.7396 23.7941C18.4192 23.8025 18.8492 23.8605 18.9756 23.965C19.3631 24.2867 19.3373 27.1644 18.9434 27.5584C18.5494 27.9523 15.6726 27.9781 15.3507 27.5899C15.2114 27.4223 15.154 26.7144 15.1882 25.5931L15.2417 23.8561L16.9786 23.8026C17.2591 23.7942 17.5132 23.791 17.7395 23.7936L17.7396 23.7941ZM23.7856 23.8567H27.5007L27.5542 25.6987C27.5936 27.0476 27.5439 27.5814 27.3686 27.6923C27.237 27.7755 26.4607 27.8439 25.6432 27.8439C24.8256 27.8439 24.05 27.7755 23.9185 27.6923C23.7431 27.5814 23.6934 27.0469 23.7328 25.6987L23.7856 23.8567ZM21.9777 28.0606C23.4142 28.0567 23.498 28.3153 23.5419 29.8827L23.576 31.1013L23.6811 29.6151L23.7856 28.1289H27.5008L27.5543 29.971C27.5936 31.3198 27.544 31.8536 27.3686 31.9646C27.0907 32.1406 24.4214 32.176 23.9868 32.0091C23.825 31.9472 23.6928 31.764 23.6928 31.6029C23.6928 31.372 23.6122 31.3959 23.3143 31.7157C22.9836 32.071 22.7425 32.1219 21.4104 32.1193C20.5716 32.1174 19.7772 32.0484 19.6457 31.9646C19.4704 31.8537 19.4207 31.3192 19.46 29.971L19.5136 28.1289L21.2757 28.0748C21.5401 28.0664 21.7728 28.0606 21.9779 28.0599L21.9777 28.0606ZM17.7396 28.0664C18.4192 28.0748 18.8492 28.1328 18.9756 28.2373C19.3631 28.559 19.3373 31.4366 18.9434 31.8306C18.7248 32.0492 18.2683 32.122 17.1322 32.1195C16.2966 32.1175 15.5054 32.0485 15.374 31.9647C15.1986 31.8538 15.1489 31.3193 15.1883 29.9711L15.2418 28.1291L16.9787 28.0755C17.2592 28.0672 17.5133 28.0638 17.7396 28.0664ZM47.3249 44.5111L44.4485 47.3939L47.1894 50.1418C48.1449 49.1856 49.1011 48.2294 50.0579 47.2739L47.3249 44.5111ZM51.8982 48.5957L48.7678 52.0038L49.8098 53.2966H56.8397L51.8982 48.5957ZM59.2531 55.5255L52.1116 55.67L54.6281 58.3122L61.7696 58.1678L59.2531 55.5255ZM56.672 60.5405L59.2524 63.1409H66.8678L64.2874 60.5405H56.672ZM68.9805 65.3698L61.7694 65.5272C61.7694 65.7361 65.8333 69.5208 66.3543 69.7974C66.5774 69.9161 66.7863 70.0063 66.8185 69.9986C67.8836 69.7323 69.9418 67.6523 69.9418 66.8425C69.9185 66.2938 69.2828 65.8025 68.9798 65.3705L68.9805 65.3698Z" fill="#3B4650"/>
<path d="M71.9247 40.7285L12.1318 40.8523L18.1359 49.5179L12.1318 58.4312H71.9247L66.0444 49.5179L71.9247 40.7285Z" fill="#3B4650"/>
<path d="M31.0376 42.4619H36.3913V42.8429H35.2884V56.1168H36.3913V56.4978H30.2756V56.1168H31.3785V43.5848H31.2983L28.2906 56.4978H25.7842L22.2551 43.5246H22.1749V56.1168H23.2778V56.4978H20.5508V56.1168H21.6536V42.8429H20.5508V42.4619H25.9646L28.6314 52.7883L31.0376 42.4619Z" fill="white"/>
<path d="M37.1902 42.4619H43.0853C45.1037 42.4619 46.6076 42.756 47.5968 43.3442C48.586 43.919 49.0806 44.955 49.0806 46.4521C49.0806 48.1097 48.479 49.2526 47.276 49.8809C46.1531 50.4557 44.5824 50.7431 42.5639 50.7431H42.4035V56.1168H44.9099V56.4978H37.1902V56.1168H38.4935V42.8429H37.1902V42.4619ZM42.4035 42.8429V50.3621H42.8246C43.6266 50.3621 44.1814 50.0881 44.4888 49.54C44.7963 48.9919 44.95 48.103 44.95 46.8732V45.9107C44.95 44.7745 44.803 43.9791 44.5089 43.5246C44.2282 43.0701 43.7068 42.8429 42.9449 42.8429H42.4035Z" fill="white"/>
<path d="M56.1745 49.3996H55.1118V56.1168H56.4151V56.4978H49.8984V56.1168H51.2018V42.8429H49.8984V42.4619H55.9539C57.6917 42.4619 58.9215 42.5555 59.6434 42.7426C60.3786 42.9164 60.8932 43.1303 61.1873 43.3843C61.8289 43.9056 62.1498 44.7344 62.1498 45.8706C62.1498 47.0069 61.869 47.8223 61.3076 48.3169C60.7462 48.7981 59.8907 49.0855 58.741 49.1791V49.2392C59.8238 49.3863 60.5791 49.7071 61.0068 50.2017C61.4346 50.6963 61.6485 51.5251 61.6485 52.6881V53.7508C61.6485 54.4459 61.6819 54.9137 61.7487 55.1544C61.8289 55.395 61.9893 55.5153 62.23 55.5153C62.4706 55.5153 62.6577 55.4083 62.7914 55.1945C62.9384 54.9672 63.0721 54.4993 63.1924 53.7909L63.5333 53.831C63.3863 54.9672 63.1256 55.7292 62.7513 56.1168C62.3904 56.5045 61.6618 56.6983 60.5657 56.6983C59.4696 56.6983 58.6876 56.4443 58.2197 55.9364C57.7652 55.415 57.538 54.4459 57.538 53.0289V51.5652C57.538 50.8166 57.4377 50.2685 57.2372 49.921C57.0501 49.5734 56.6958 49.3996 56.1745 49.3996ZM55.1118 42.8429V49.0187H55.7534C56.5154 49.0187 57.0768 48.7847 57.4377 48.3169C57.812 47.849 57.9992 47.0871 57.9992 46.031V45.4496C57.9992 44.3935 57.8187 43.6984 57.4578 43.3642C57.1102 43.0167 56.5488 42.8429 55.7735 42.8429H55.1118Z" fill="white"/>
</svg>
