<svg width="956" height="814" viewBox="0 0 956 814" fill="none" xmlns="http://www.w3.org/2000/svg">
<g opacity="0.1">
<path d="M917.157 231.759C1057.04 205.243 1076.84 331.807 1069.25 398.404C1051.75 522.678 992.108 462.656 933.099 558.049C874.091 653.443 869.557 548.092 809.375 520.892C749.192 493.691 759.139 640.035 649.686 587.345C540.232 534.654 567.698 313.225 702.336 419.221C836.974 525.217 742.301 264.904 917.157 231.759Z" stroke="#FAFBFF" stroke-width="2"/>
<path d="M896.638 273.793C1004.39 253.419 1019.66 350.784 1013.83 402.012C1000.37 497.608 954.416 451.425 908.976 524.797C863.536 598.169 860.025 517.126 813.659 496.192C767.293 475.257 774.981 587.835 690.655 547.283C606.329 506.732 627.449 336.4 731.185 417.962C834.921 499.523 761.945 299.259 896.638 273.793Z" stroke="#FAFBFF" stroke-width="2"/>
<path d="M936.284 192.86C1106.21 160.701 1130.28 314.317 1121.08 395.144C1099.84 545.972 1027.37 473.114 955.708 588.882C884.042 704.651 878.516 576.785 805.402 543.762C732.289 510.739 744.397 688.358 611.425 624.389C478.453 560.419 511.78 291.675 675.355 420.345C838.93 549.016 723.878 233.057 936.284 192.86Z" stroke="#FAFBFF" stroke-width="2"/>
<path d="M952.193 160.158C1147 123.205 1174.56 299.527 1163.99 392.307C1139.6 565.44 1056.55 481.826 974.366 614.728C892.183 747.63 885.878 600.861 802.07 562.973C718.262 525.084 732.101 728.962 579.68 655.566C427.259 582.17 465.528 273.684 653.016 421.34C840.504 568.996 708.685 206.35 952.193 160.158Z" stroke="#FAFBFF" stroke-width="2"/>
<path d="M975.234 113.493C1206.28 69.8 1239.03 278.591 1226.52 388.449C1197.66 593.447 1099.12 494.414 1001.68 651.756C904.245 809.099 896.719 635.308 797.301 590.417C697.882 545.526 714.363 786.942 533.549 699.984C352.736 613.026 398.027 247.76 620.459 422.661C842.89 597.561 686.42 168.109 975.234 113.493Z" stroke="#FAFBFF" stroke-width="2"/>
<path d="M1002.19 59.0612C1275.69 7.53066 1314.53 254.211 1299.77 383.993C1265.67 626.168 1148.99 509.132 1033.7 694.98C918.418 880.828 909.443 675.507 791.734 622.434C674.025 569.361 693.628 854.579 479.548 751.777C265.468 648.975 318.944 217.464 582.325 424.178C845.705 630.892 660.311 123.474 1002.19 59.0612Z" stroke="#FAFBFF" stroke-width="2"/>
</g>
</svg>
